<mxfile host="app.diagrams.net" modified="2020-09-17T22:26:53.768Z" agent="5.0 (Windows)" etag="_QkkIAA9AJpqIjAXxy2E" version="13.7.3" type="gitlab">
  <diagram id="P3-YsKaSViBWpfWXX8rw" name="Page-1">
    <mxGraphModel dx="7038" dy="5444" grid="1" gridSize="10" guides="1" tooltips="1" connect="1" arrows="1" fold="1" page="1" pageScale="1" pageWidth="850" pageHeight="1100" math="0" shadow="0">
      <root>
        <mxCell id="0" />
        <mxCell id="1" parent="0" />
        <mxCell id="GOCW8Aj6e0anN713tclq-377" value="" style="rounded=0;whiteSpace=wrap;html=1;fillColor=#FFFFFF;" parent="1" vertex="1">
          <mxGeometry x="2300" y="-530" width="880" height="1350" as="geometry" />
        </mxCell>
        <mxCell id="GOCW8Aj6e0anN713tclq-375" value="" style="rounded=0;whiteSpace=wrap;html=1;fillColor=#FFFFFF;" parent="1" vertex="1">
          <mxGeometry x="-1930" y="-1380" width="1350" height="2540" as="geometry" />
        </mxCell>
        <mxCell id="GOCW8Aj6e0anN713tclq-268" value="" style="rounded=0;whiteSpace=wrap;html=1;fillColor=#FFFFFF;" parent="1" vertex="1">
          <mxGeometry x="-190" y="-540" width="2120" height="1350" as="geometry" />
        </mxCell>
        <mxCell id="GOCW8Aj6e0anN713tclq-1" value="" style="rounded=0;whiteSpace=wrap;html=1;fillColor=#FFF2CC;strokeColor=#FFF2CC;" parent="1" vertex="1">
          <mxGeometry x="-1416" y="630" width="90" height="40" as="geometry" />
        </mxCell>
        <mxCell id="GOCW8Aj6e0anN713tclq-2" value="" style="rounded=0;whiteSpace=wrap;html=1;direction=south;strokeColor=#FFF2CC;fillColor=#FFF2CC;" parent="1" vertex="1">
          <mxGeometry x="-846" y="510" width="40" height="280" as="geometry" />
        </mxCell>
        <mxCell id="GOCW8Aj6e0anN713tclq-3" value="" style="rounded=0;whiteSpace=wrap;html=1;fillColor=#fff2cc;direction=south;strokeColor=#FFF2CC;" parent="1" vertex="1">
          <mxGeometry x="-1006" y="510" width="40" height="280" as="geometry" />
        </mxCell>
        <mxCell id="GOCW8Aj6e0anN713tclq-4" value="" style="rounded=0;whiteSpace=wrap;html=1;fillColor=#fff2cc;direction=south;strokeColor=#FFF2CC;" parent="1" vertex="1">
          <mxGeometry x="-1166" y="510" width="40" height="280" as="geometry" />
        </mxCell>
        <mxCell id="GOCW8Aj6e0anN713tclq-5" value="" style="rounded=0;whiteSpace=wrap;html=1;fillColor=#fff2cc;strokeColor=#FFF2CC;" parent="1" vertex="1">
          <mxGeometry x="-1326" y="750" width="640" height="40" as="geometry" />
        </mxCell>
        <mxCell id="GOCW8Aj6e0anN713tclq-6" value="" style="rounded=0;whiteSpace=wrap;html=1;fillColor=#FFF2CC;strokeColor=#FFF2CC;" parent="1" vertex="1">
          <mxGeometry x="-1326" y="510" width="640" height="40" as="geometry" />
        </mxCell>
        <mxCell id="GOCW8Aj6e0anN713tclq-7" value="" style="rounded=0;whiteSpace=wrap;html=1;fillColor=#fff2cc;direction=south;strokeColor=#FFF2CC;" parent="1" vertex="1">
          <mxGeometry x="-1326" y="510" width="40" height="280" as="geometry" />
        </mxCell>
        <mxCell id="GOCW8Aj6e0anN713tclq-8" value="" style="rounded=0;whiteSpace=wrap;html=1;" parent="1" vertex="1">
          <mxGeometry x="-806" y="550" width="120" height="200" as="geometry" />
        </mxCell>
        <mxCell id="GOCW8Aj6e0anN713tclq-9" value="" style="endArrow=none;html=1;rounded=0;exitX=1;exitY=0;exitDx=0;exitDy=0;" parent="1" source="GOCW8Aj6e0anN713tclq-6" edge="1">
          <mxGeometry width="50" height="50" relative="1" as="geometry">
            <mxPoint x="-746" y="510" as="sourcePoint" />
            <mxPoint x="-1416" y="629.9999999999998" as="targetPoint" />
            <Array as="points">
              <mxPoint x="-876" y="510" />
              <mxPoint x="-946" y="510" />
              <mxPoint x="-1096" y="510" />
              <mxPoint x="-1186" y="510" />
              <mxPoint x="-1326" y="510" />
              <mxPoint x="-1326" y="630" />
            </Array>
          </mxGeometry>
        </mxCell>
        <mxCell id="GOCW8Aj6e0anN713tclq-10" value="" style="endArrow=none;html=1;rounded=0;exitX=1;exitY=1;exitDx=0;exitDy=0;" parent="1" source="GOCW8Aj6e0anN713tclq-5" edge="1">
          <mxGeometry width="50" height="50" relative="1" as="geometry">
            <mxPoint x="-746" y="790" as="sourcePoint" />
            <mxPoint x="-1416" y="669.9999999999998" as="targetPoint" />
            <Array as="points">
              <mxPoint x="-1056" y="790" />
              <mxPoint x="-1216" y="790" />
              <mxPoint x="-1276" y="790" />
              <mxPoint x="-1326" y="790" />
              <mxPoint x="-1326" y="680" />
              <mxPoint x="-1326" y="670" />
              <mxPoint x="-1346" y="670" />
            </Array>
          </mxGeometry>
        </mxCell>
        <mxCell id="GOCW8Aj6e0anN713tclq-11" value="" style="rounded=0;whiteSpace=wrap;html=1;" parent="1" vertex="1">
          <mxGeometry x="-1286" y="550" width="120" height="200" as="geometry" />
        </mxCell>
        <mxCell id="GOCW8Aj6e0anN713tclq-12" value="" style="rounded=0;whiteSpace=wrap;html=1;" parent="1" vertex="1">
          <mxGeometry x="-1125" y="550" width="120" height="200" as="geometry" />
        </mxCell>
        <mxCell id="GOCW8Aj6e0anN713tclq-13" value="" style="rounded=0;whiteSpace=wrap;html=1;" parent="1" vertex="1">
          <mxGeometry x="-966" y="550" width="120" height="200" as="geometry" />
        </mxCell>
        <mxCell id="GOCW8Aj6e0anN713tclq-14" value="" style="whiteSpace=wrap;html=1;aspect=fixed;fillColor=#FFF2CC;" parent="1" vertex="1">
          <mxGeometry x="-1188" y="613" width="80" height="80" as="geometry" />
        </mxCell>
        <mxCell id="GOCW8Aj6e0anN713tclq-15" value="" style="whiteSpace=wrap;html=1;aspect=fixed;fillColor=#FFF2CC;" parent="1" vertex="1">
          <mxGeometry x="-1026" y="613" width="80" height="80" as="geometry" />
        </mxCell>
        <mxCell id="GOCW8Aj6e0anN713tclq-16" value="" style="whiteSpace=wrap;html=1;aspect=fixed;fillColor=#FFF2CC;" parent="1" vertex="1">
          <mxGeometry x="-866" y="613" width="80" height="80" as="geometry" />
        </mxCell>
        <mxCell id="GOCW8Aj6e0anN713tclq-17" value="" style="rounded=0;whiteSpace=wrap;html=1;fillColor=#FFF2CC;strokeColor=#FFF2CC;direction=south;" parent="1" vertex="1">
          <mxGeometry x="-1165" y="611" width="39" height="86" as="geometry" />
        </mxCell>
        <mxCell id="GOCW8Aj6e0anN713tclq-18" value="" style="rounded=0;whiteSpace=wrap;html=1;fillColor=#FFF2CC;strokeColor=#FFF2CC;direction=south;" parent="1" vertex="1">
          <mxGeometry x="-1004" y="612" width="37" height="86" as="geometry" />
        </mxCell>
        <mxCell id="GOCW8Aj6e0anN713tclq-19" value="" style="rounded=0;whiteSpace=wrap;html=1;fillColor=#FFF2CC;strokeColor=#FFF2CC;direction=south;" parent="1" vertex="1">
          <mxGeometry x="-845" y="612" width="38" height="86" as="geometry" />
        </mxCell>
        <mxCell id="GOCW8Aj6e0anN713tclq-20" value="" style="rounded=0;whiteSpace=wrap;html=1;strokeColor=#FFFFFF;fillColor=#FFFFFF;" parent="1" vertex="1">
          <mxGeometry x="-733" y="608" width="49" height="91" as="geometry" />
        </mxCell>
        <mxCell id="GOCW8Aj6e0anN713tclq-21" value="" style="rounded=0;whiteSpace=wrap;html=1;strokeColor=#FFFFFF;fillColor=#FFFFFF;" parent="1" vertex="1">
          <mxGeometry x="-721" y="740" width="38" height="9" as="geometry" />
        </mxCell>
        <mxCell id="GOCW8Aj6e0anN713tclq-22" value="" style="rounded=0;whiteSpace=wrap;html=1;strokeColor=#FFFFFF;fillColor=#FFFFFF;" parent="1" vertex="1">
          <mxGeometry x="-721" y="551" width="37" height="18" as="geometry" />
        </mxCell>
        <mxCell id="GOCW8Aj6e0anN713tclq-23" value="" style="rounded=0;whiteSpace=wrap;html=1;direction=west;fontColor=#ffffff;fillColor=#003366;" parent="1" vertex="1">
          <mxGeometry x="-1245" y="501" width="40" height="60" as="geometry" />
        </mxCell>
        <mxCell id="GOCW8Aj6e0anN713tclq-24" value="" style="rounded=0;whiteSpace=wrap;html=1;direction=west;fontColor=#ffffff;fillColor=#003366;" parent="1" vertex="1">
          <mxGeometry x="-925" y="500" width="40" height="60" as="geometry" />
        </mxCell>
        <mxCell id="GOCW8Aj6e0anN713tclq-25" value="" style="rounded=0;whiteSpace=wrap;html=1;direction=west;fontColor=#ffffff;fillColor=#003366;" parent="1" vertex="1">
          <mxGeometry x="-1243" y="743" width="40" height="60" as="geometry" />
        </mxCell>
        <mxCell id="GOCW8Aj6e0anN713tclq-26" value="" style="rounded=0;whiteSpace=wrap;html=1;direction=west;fontColor=#ffffff;fillColor=#003366;" parent="1" vertex="1">
          <mxGeometry x="-1083" y="743" width="40" height="60" as="geometry" />
        </mxCell>
        <mxCell id="GOCW8Aj6e0anN713tclq-27" value="" style="rounded=0;whiteSpace=wrap;html=1;direction=west;fontColor=#ffffff;fillColor=#003366;" parent="1" vertex="1">
          <mxGeometry x="-923" y="743" width="40" height="60" as="geometry" />
        </mxCell>
        <mxCell id="GOCW8Aj6e0anN713tclq-28" value="" style="rounded=0;whiteSpace=wrap;html=1;direction=west;fontColor=#ffffff;fillColor=#003366;" parent="1" vertex="1">
          <mxGeometry x="-763" y="743" width="40" height="60" as="geometry" />
        </mxCell>
        <mxCell id="GOCW8Aj6e0anN713tclq-29" value="" style="ellipse;whiteSpace=wrap;html=1;aspect=fixed;fillColor=#CCCCCC;strokeColor=#CCCCCC;" parent="1" vertex="1">
          <mxGeometry x="-1184" y="616" width="73" height="73" as="geometry" />
        </mxCell>
        <mxCell id="GOCW8Aj6e0anN713tclq-30" value="" style="ellipse;whiteSpace=wrap;html=1;aspect=fixed;fillColor=#CCCCCC;strokeColor=#CCCCCC;" parent="1" vertex="1">
          <mxGeometry x="-1022.5" y="616.5" width="73" height="73" as="geometry" />
        </mxCell>
        <mxCell id="GOCW8Aj6e0anN713tclq-31" value="" style="ellipse;whiteSpace=wrap;html=1;aspect=fixed;fillColor=#CCCCCC;strokeColor=#CCCCCC;" parent="1" vertex="1">
          <mxGeometry x="-862.5" y="616.5" width="73" height="73" as="geometry" />
        </mxCell>
        <mxCell id="GOCW8Aj6e0anN713tclq-32" value="" style="rounded=0;whiteSpace=wrap;html=1;direction=west;fontColor=#ffffff;fillColor=#003366;" parent="1" vertex="1">
          <mxGeometry x="-1086" y="501" width="40" height="60" as="geometry" />
        </mxCell>
        <mxCell id="GOCW8Aj6e0anN713tclq-33" value="" style="rounded=0;whiteSpace=wrap;html=1;direction=west;fontColor=#ffffff;fillColor=#003366;" parent="1" vertex="1">
          <mxGeometry x="-766" y="501" width="40" height="60" as="geometry" />
        </mxCell>
        <mxCell id="GOCW8Aj6e0anN713tclq-34" value="" style="rounded=0;whiteSpace=wrap;html=1;direction=south;strokeColor=#FFFFFF;" parent="1" vertex="1">
          <mxGeometry x="-702" y="560" width="16" height="180" as="geometry" />
        </mxCell>
        <mxCell id="GOCW8Aj6e0anN713tclq-35" value="" style="rounded=0;whiteSpace=wrap;html=1;direction=south;fontColor=#ffffff;fillColor=none;" parent="1" vertex="1">
          <mxGeometry x="-1205" y="700" width="519" height="40" as="geometry" />
        </mxCell>
        <mxCell id="GOCW8Aj6e0anN713tclq-36" value="" style="rounded=0;whiteSpace=wrap;html=1;direction=south;fontColor=#ffffff;fillColor=none;" parent="1" vertex="1">
          <mxGeometry x="-1206" y="568" width="520" height="40" as="geometry" />
        </mxCell>
        <mxCell id="GOCW8Aj6e0anN713tclq-73" value="" style="rounded=0;whiteSpace=wrap;html=1;fillColor=#FFF2CC;strokeColor=#FFF2CC;" parent="1" vertex="1">
          <mxGeometry x="-1416" y="93.5" width="90" height="40" as="geometry" />
        </mxCell>
        <mxCell id="GOCW8Aj6e0anN713tclq-74" value="" style="rounded=0;whiteSpace=wrap;html=1;direction=south;strokeColor=#FFF2CC;fillColor=#FFF2CC;" parent="1" vertex="1">
          <mxGeometry x="-846" y="-26.5" width="40" height="280" as="geometry" />
        </mxCell>
        <mxCell id="GOCW8Aj6e0anN713tclq-75" value="" style="rounded=0;whiteSpace=wrap;html=1;fillColor=#fff2cc;direction=south;strokeColor=#FFF2CC;" parent="1" vertex="1">
          <mxGeometry x="-1006" y="-26.5" width="40" height="280" as="geometry" />
        </mxCell>
        <mxCell id="GOCW8Aj6e0anN713tclq-76" value="" style="rounded=0;whiteSpace=wrap;html=1;fillColor=#fff2cc;direction=south;strokeColor=#FFF2CC;" parent="1" vertex="1">
          <mxGeometry x="-1166" y="-26.5" width="40" height="280" as="geometry" />
        </mxCell>
        <mxCell id="GOCW8Aj6e0anN713tclq-77" value="" style="rounded=0;whiteSpace=wrap;html=1;fillColor=#fff2cc;strokeColor=#FFF2CC;" parent="1" vertex="1">
          <mxGeometry x="-1326" y="213.5" width="640" height="40" as="geometry" />
        </mxCell>
        <mxCell id="GOCW8Aj6e0anN713tclq-78" value="" style="rounded=0;whiteSpace=wrap;html=1;fillColor=#FFF2CC;strokeColor=#FFF2CC;" parent="1" vertex="1">
          <mxGeometry x="-1326" y="-26.5" width="640" height="40" as="geometry" />
        </mxCell>
        <mxCell id="GOCW8Aj6e0anN713tclq-79" value="" style="rounded=0;whiteSpace=wrap;html=1;fillColor=#fff2cc;direction=south;strokeColor=#FFF2CC;" parent="1" vertex="1">
          <mxGeometry x="-1326" y="-26.5" width="40" height="280" as="geometry" />
        </mxCell>
        <mxCell id="GOCW8Aj6e0anN713tclq-80" value="" style="rounded=0;whiteSpace=wrap;html=1;" parent="1" vertex="1">
          <mxGeometry x="-806" y="13.5" width="120" height="200" as="geometry" />
        </mxCell>
        <mxCell id="GOCW8Aj6e0anN713tclq-81" value="" style="endArrow=none;html=1;rounded=0;exitX=1;exitY=0;exitDx=0;exitDy=0;" parent="1" source="GOCW8Aj6e0anN713tclq-78" edge="1">
          <mxGeometry width="50" height="50" relative="1" as="geometry">
            <mxPoint x="-746" y="-26.5" as="sourcePoint" />
            <mxPoint x="-1416" y="93.49999999999977" as="targetPoint" />
            <Array as="points">
              <mxPoint x="-876" y="-26.5" />
              <mxPoint x="-946" y="-26.5" />
              <mxPoint x="-1096" y="-26.5" />
              <mxPoint x="-1186" y="-26.5" />
              <mxPoint x="-1326" y="-26.5" />
              <mxPoint x="-1326" y="93.5" />
            </Array>
          </mxGeometry>
        </mxCell>
        <mxCell id="GOCW8Aj6e0anN713tclq-82" value="" style="endArrow=none;html=1;rounded=0;exitX=1;exitY=1;exitDx=0;exitDy=0;" parent="1" source="GOCW8Aj6e0anN713tclq-77" edge="1">
          <mxGeometry width="50" height="50" relative="1" as="geometry">
            <mxPoint x="-746" y="253.5" as="sourcePoint" />
            <mxPoint x="-1416" y="133.49999999999977" as="targetPoint" />
            <Array as="points">
              <mxPoint x="-1056" y="253.5" />
              <mxPoint x="-1216" y="253.5" />
              <mxPoint x="-1276" y="253.5" />
              <mxPoint x="-1326" y="253.5" />
              <mxPoint x="-1326" y="143.5" />
              <mxPoint x="-1326" y="133.5" />
              <mxPoint x="-1346" y="133.5" />
            </Array>
          </mxGeometry>
        </mxCell>
        <mxCell id="GOCW8Aj6e0anN713tclq-83" value="" style="rounded=0;whiteSpace=wrap;html=1;" parent="1" vertex="1">
          <mxGeometry x="-1286" y="13.5" width="120" height="200" as="geometry" />
        </mxCell>
        <mxCell id="GOCW8Aj6e0anN713tclq-84" value="" style="rounded=0;whiteSpace=wrap;html=1;" parent="1" vertex="1">
          <mxGeometry x="-1125" y="13.5" width="120" height="200" as="geometry" />
        </mxCell>
        <mxCell id="GOCW8Aj6e0anN713tclq-85" value="" style="rounded=0;whiteSpace=wrap;html=1;" parent="1" vertex="1">
          <mxGeometry x="-966" y="13.5" width="120" height="200" as="geometry" />
        </mxCell>
        <mxCell id="GOCW8Aj6e0anN713tclq-86" value="" style="whiteSpace=wrap;html=1;aspect=fixed;fillColor=#FFF2CC;" parent="1" vertex="1">
          <mxGeometry x="-1188" y="76.5" width="80" height="80" as="geometry" />
        </mxCell>
        <mxCell id="GOCW8Aj6e0anN713tclq-87" value="" style="whiteSpace=wrap;html=1;aspect=fixed;fillColor=#FFF2CC;" parent="1" vertex="1">
          <mxGeometry x="-1026" y="76.5" width="80" height="80" as="geometry" />
        </mxCell>
        <mxCell id="GOCW8Aj6e0anN713tclq-88" value="" style="whiteSpace=wrap;html=1;aspect=fixed;fillColor=#FFF2CC;" parent="1" vertex="1">
          <mxGeometry x="-866" y="76.5" width="80" height="80" as="geometry" />
        </mxCell>
        <mxCell id="GOCW8Aj6e0anN713tclq-89" value="" style="rounded=0;whiteSpace=wrap;html=1;fillColor=#FFF2CC;strokeColor=#FFF2CC;direction=south;" parent="1" vertex="1">
          <mxGeometry x="-1165" y="74.5" width="39" height="86" as="geometry" />
        </mxCell>
        <mxCell id="GOCW8Aj6e0anN713tclq-90" value="" style="rounded=0;whiteSpace=wrap;html=1;fillColor=#FFF2CC;strokeColor=#FFF2CC;direction=south;" parent="1" vertex="1">
          <mxGeometry x="-1004" y="75.5" width="37" height="86" as="geometry" />
        </mxCell>
        <mxCell id="GOCW8Aj6e0anN713tclq-91" value="" style="rounded=0;whiteSpace=wrap;html=1;fillColor=#FFF2CC;strokeColor=#FFF2CC;direction=south;" parent="1" vertex="1">
          <mxGeometry x="-845" y="75.5" width="38" height="86" as="geometry" />
        </mxCell>
        <mxCell id="GOCW8Aj6e0anN713tclq-92" value="" style="rounded=0;whiteSpace=wrap;html=1;strokeColor=#FFFFFF;fillColor=#FFFFFF;" parent="1" vertex="1">
          <mxGeometry x="-733" y="71.5" width="49" height="91" as="geometry" />
        </mxCell>
        <mxCell id="GOCW8Aj6e0anN713tclq-93" value="" style="rounded=0;whiteSpace=wrap;html=1;strokeColor=#FFFFFF;fillColor=#FFFFFF;" parent="1" vertex="1">
          <mxGeometry x="-721" y="203.5" width="38" height="9" as="geometry" />
        </mxCell>
        <mxCell id="GOCW8Aj6e0anN713tclq-94" value="" style="rounded=0;whiteSpace=wrap;html=1;strokeColor=#FFFFFF;fillColor=#FFFFFF;" parent="1" vertex="1">
          <mxGeometry x="-721" y="14.5" width="37" height="18" as="geometry" />
        </mxCell>
        <mxCell id="GOCW8Aj6e0anN713tclq-95" value="" style="rounded=0;whiteSpace=wrap;html=1;direction=west;fontColor=#ffffff;fillColor=none;" parent="1" vertex="1">
          <mxGeometry x="-1245" y="-35.5" width="40" height="60" as="geometry" />
        </mxCell>
        <mxCell id="GOCW8Aj6e0anN713tclq-96" value="" style="rounded=0;whiteSpace=wrap;html=1;direction=west;fontColor=#ffffff;fillColor=none;" parent="1" vertex="1">
          <mxGeometry x="-925" y="-36.5" width="40" height="60" as="geometry" />
        </mxCell>
        <mxCell id="GOCW8Aj6e0anN713tclq-97" value="" style="rounded=0;whiteSpace=wrap;html=1;direction=west;fontColor=#ffffff;fillColor=none;" parent="1" vertex="1">
          <mxGeometry x="-1243" y="206.5" width="40" height="60" as="geometry" />
        </mxCell>
        <mxCell id="GOCW8Aj6e0anN713tclq-98" value="" style="rounded=0;whiteSpace=wrap;html=1;direction=west;fontColor=#ffffff;fillColor=none;" parent="1" vertex="1">
          <mxGeometry x="-1083" y="206.5" width="40" height="60" as="geometry" />
        </mxCell>
        <mxCell id="GOCW8Aj6e0anN713tclq-99" value="" style="rounded=0;whiteSpace=wrap;html=1;direction=west;fontColor=#ffffff;fillColor=none;" parent="1" vertex="1">
          <mxGeometry x="-923" y="206.5" width="40" height="60" as="geometry" />
        </mxCell>
        <mxCell id="GOCW8Aj6e0anN713tclq-100" value="" style="rounded=0;whiteSpace=wrap;html=1;direction=west;fontColor=#ffffff;fillColor=none;" parent="1" vertex="1">
          <mxGeometry x="-763" y="206.5" width="40" height="60" as="geometry" />
        </mxCell>
        <mxCell id="GOCW8Aj6e0anN713tclq-101" value="" style="ellipse;whiteSpace=wrap;html=1;aspect=fixed;fillColor=#CCCCCC;strokeColor=#CCCCCC;" parent="1" vertex="1">
          <mxGeometry x="-1184" y="79.5" width="73" height="73" as="geometry" />
        </mxCell>
        <mxCell id="GOCW8Aj6e0anN713tclq-102" value="" style="ellipse;whiteSpace=wrap;html=1;aspect=fixed;fillColor=#CCCCCC;strokeColor=#CCCCCC;" parent="1" vertex="1">
          <mxGeometry x="-1022.5" y="80" width="73" height="73" as="geometry" />
        </mxCell>
        <mxCell id="GOCW8Aj6e0anN713tclq-103" value="" style="ellipse;whiteSpace=wrap;html=1;aspect=fixed;fillColor=#CCCCCC;strokeColor=#CCCCCC;" parent="1" vertex="1">
          <mxGeometry x="-862.5" y="80" width="73" height="73" as="geometry" />
        </mxCell>
        <mxCell id="GOCW8Aj6e0anN713tclq-104" value="" style="rounded=0;whiteSpace=wrap;html=1;direction=west;fontColor=#ffffff;fillColor=none;" parent="1" vertex="1">
          <mxGeometry x="-1086" y="-35.5" width="40" height="60" as="geometry" />
        </mxCell>
        <mxCell id="GOCW8Aj6e0anN713tclq-105" value="" style="rounded=0;whiteSpace=wrap;html=1;direction=west;fontColor=#ffffff;fillColor=none;" parent="1" vertex="1">
          <mxGeometry x="-766" y="-35.5" width="40" height="60" as="geometry" />
        </mxCell>
        <mxCell id="GOCW8Aj6e0anN713tclq-106" value="" style="rounded=0;whiteSpace=wrap;html=1;direction=south;strokeColor=#FFFFFF;" parent="1" vertex="1">
          <mxGeometry x="-702" y="23.5" width="16" height="180" as="geometry" />
        </mxCell>
        <mxCell id="GOCW8Aj6e0anN713tclq-107" value="" style="rounded=0;whiteSpace=wrap;html=1;direction=south;fontColor=#ffffff;fillColor=#003366;" parent="1" vertex="1">
          <mxGeometry x="-1205" y="163.5" width="519" height="40" as="geometry" />
        </mxCell>
        <mxCell id="GOCW8Aj6e0anN713tclq-108" value="" style="rounded=0;whiteSpace=wrap;html=1;direction=south;fontColor=#ffffff;fillColor=#003366;" parent="1" vertex="1">
          <mxGeometry x="-1206" y="31.5" width="520" height="40" as="geometry" />
        </mxCell>
        <mxCell id="GOCW8Aj6e0anN713tclq-109" value="" style="edgeStyle=segmentEdgeStyle;endArrow=classic;html=1;" parent="1" edge="1">
          <mxGeometry width="50" height="50" relative="1" as="geometry">
            <mxPoint x="-1309" y="32.5" as="sourcePoint" />
            <mxPoint x="-1249" y="-7.5" as="targetPoint" />
            <Array as="points">
              <mxPoint x="-1309" y="-7.5" />
            </Array>
          </mxGeometry>
        </mxCell>
        <mxCell id="GOCW8Aj6e0anN713tclq-110" value="" style="edgeStyle=segmentEdgeStyle;endArrow=classic;html=1;entryX=0.122;entryY=0.6;entryDx=0;entryDy=0;entryPerimeter=0;" parent="1" target="GOCW8Aj6e0anN713tclq-77" edge="1">
          <mxGeometry width="50" height="50" relative="1" as="geometry">
            <mxPoint x="-1306" y="203.5" as="sourcePoint" />
            <mxPoint x="-1256" y="237.99" as="targetPoint" />
            <Array as="points">
              <mxPoint x="-1306" y="237.5" />
            </Array>
          </mxGeometry>
        </mxCell>
        <mxCell id="GOCW8Aj6e0anN713tclq-111" value="" style="endArrow=classic;html=1;" parent="1" edge="1">
          <mxGeometry width="50" height="50" relative="1" as="geometry">
            <mxPoint x="-1022.5" y="-5.839999999999918" as="sourcePoint" />
            <mxPoint x="-944.5" y="-5.839999999999918" as="targetPoint" />
          </mxGeometry>
        </mxCell>
        <mxCell id="GOCW8Aj6e0anN713tclq-112" value="" style="endArrow=classic;html=1;" parent="1" edge="1">
          <mxGeometry width="50" height="50" relative="1" as="geometry">
            <mxPoint x="-1184" y="-6.839999999999918" as="sourcePoint" />
            <mxPoint x="-1105.9999999999998" y="-6.839999999999918" as="targetPoint" />
          </mxGeometry>
        </mxCell>
        <mxCell id="GOCW8Aj6e0anN713tclq-113" value="" style="endArrow=classic;html=1;" parent="1" edge="1">
          <mxGeometry width="50" height="50" relative="1" as="geometry">
            <mxPoint x="-862.5" y="-5.8400000000001455" as="sourcePoint" />
            <mxPoint x="-784.5" y="-5.8400000000001455" as="targetPoint" />
          </mxGeometry>
        </mxCell>
        <mxCell id="GOCW8Aj6e0anN713tclq-114" value="" style="endArrow=classic;html=1;" parent="1" edge="1">
          <mxGeometry width="50" height="50" relative="1" as="geometry">
            <mxPoint x="-1184" y="236.16000000000008" as="sourcePoint" />
            <mxPoint x="-1105.9999999999998" y="236.16000000000008" as="targetPoint" />
          </mxGeometry>
        </mxCell>
        <mxCell id="GOCW8Aj6e0anN713tclq-115" value="" style="endArrow=classic;html=1;" parent="1" edge="1">
          <mxGeometry width="50" height="50" relative="1" as="geometry">
            <mxPoint x="-1022.5" y="236.16000000000008" as="sourcePoint" />
            <mxPoint x="-944.5" y="236.16000000000008" as="targetPoint" />
          </mxGeometry>
        </mxCell>
        <mxCell id="GOCW8Aj6e0anN713tclq-116" value="" style="endArrow=classic;html=1;" parent="1" edge="1">
          <mxGeometry width="50" height="50" relative="1" as="geometry">
            <mxPoint x="-862.5" y="236.16000000000008" as="sourcePoint" />
            <mxPoint x="-784.5" y="236.16000000000008" as="targetPoint" />
          </mxGeometry>
        </mxCell>
        <mxCell id="GOCW8Aj6e0anN713tclq-117" value="" style="endArrow=classic;html=1;" parent="1" edge="1">
          <mxGeometry width="50" height="50" relative="1" as="geometry">
            <mxPoint x="-1409" y="113.07999999999993" as="sourcePoint" />
            <mxPoint x="-1331" y="113.07999999999993" as="targetPoint" />
          </mxGeometry>
        </mxCell>
        <mxCell id="GOCW8Aj6e0anN713tclq-118" value="" style="rounded=0;whiteSpace=wrap;html=1;fillColor=#FFF2CC;strokeColor=#FFF2CC;" parent="1" vertex="1">
          <mxGeometry x="-120" y="87" width="90" height="40" as="geometry" />
        </mxCell>
        <mxCell id="GOCW8Aj6e0anN713tclq-119" value="" style="rounded=0;whiteSpace=wrap;html=1;direction=south;strokeColor=#FFF2CC;fillColor=#FFF2CC;" parent="1" vertex="1">
          <mxGeometry x="450" y="-33" width="40" height="280" as="geometry" />
        </mxCell>
        <mxCell id="GOCW8Aj6e0anN713tclq-120" value="" style="rounded=0;whiteSpace=wrap;html=1;fillColor=#fff2cc;direction=south;strokeColor=#FFF2CC;" parent="1" vertex="1">
          <mxGeometry x="290" y="-33" width="40" height="280" as="geometry" />
        </mxCell>
        <mxCell id="GOCW8Aj6e0anN713tclq-121" value="" style="rounded=0;whiteSpace=wrap;html=1;fillColor=#fff2cc;direction=south;strokeColor=#FFF2CC;" parent="1" vertex="1">
          <mxGeometry x="130" y="-33" width="40" height="280" as="geometry" />
        </mxCell>
        <mxCell id="GOCW8Aj6e0anN713tclq-122" value="" style="rounded=0;whiteSpace=wrap;html=1;fillColor=#fff2cc;strokeColor=#FFF2CC;" parent="1" vertex="1">
          <mxGeometry x="-30" y="207" width="640" height="40" as="geometry" />
        </mxCell>
        <mxCell id="GOCW8Aj6e0anN713tclq-123" value="" style="rounded=0;whiteSpace=wrap;html=1;fillColor=#FFF2CC;strokeColor=#FFF2CC;" parent="1" vertex="1">
          <mxGeometry x="-30" y="-33" width="640" height="40" as="geometry" />
        </mxCell>
        <mxCell id="GOCW8Aj6e0anN713tclq-124" value="" style="rounded=0;whiteSpace=wrap;html=1;fillColor=#fff2cc;direction=south;strokeColor=#FFF2CC;" parent="1" vertex="1">
          <mxGeometry x="-30" y="-33" width="40" height="280" as="geometry" />
        </mxCell>
        <mxCell id="GOCW8Aj6e0anN713tclq-125" value="" style="rounded=0;whiteSpace=wrap;html=1;" parent="1" vertex="1">
          <mxGeometry x="490" y="7" width="120" height="200" as="geometry" />
        </mxCell>
        <mxCell id="GOCW8Aj6e0anN713tclq-126" value="" style="endArrow=none;html=1;rounded=0;exitX=1;exitY=0;exitDx=0;exitDy=0;" parent="1" source="GOCW8Aj6e0anN713tclq-123" edge="1">
          <mxGeometry width="50" height="50" relative="1" as="geometry">
            <mxPoint x="550" y="-33" as="sourcePoint" />
            <mxPoint x="-120" y="86.99999999999977" as="targetPoint" />
            <Array as="points">
              <mxPoint x="420" y="-33" />
              <mxPoint x="350" y="-33" />
              <mxPoint x="200" y="-33" />
              <mxPoint x="110" y="-33" />
              <mxPoint x="-30" y="-33" />
              <mxPoint x="-30" y="87" />
            </Array>
          </mxGeometry>
        </mxCell>
        <mxCell id="GOCW8Aj6e0anN713tclq-127" value="" style="endArrow=none;html=1;rounded=0;exitX=1;exitY=1;exitDx=0;exitDy=0;" parent="1" source="GOCW8Aj6e0anN713tclq-122" edge="1">
          <mxGeometry width="50" height="50" relative="1" as="geometry">
            <mxPoint x="550" y="247" as="sourcePoint" />
            <mxPoint x="-120" y="126.99999999999977" as="targetPoint" />
            <Array as="points">
              <mxPoint x="240" y="247" />
              <mxPoint x="80" y="247" />
              <mxPoint x="20" y="247" />
              <mxPoint x="-30" y="247" />
              <mxPoint x="-30" y="137" />
              <mxPoint x="-30" y="127" />
              <mxPoint x="-50" y="127" />
            </Array>
          </mxGeometry>
        </mxCell>
        <mxCell id="GOCW8Aj6e0anN713tclq-128" value="" style="rounded=0;whiteSpace=wrap;html=1;" parent="1" vertex="1">
          <mxGeometry x="10" y="7" width="120" height="200" as="geometry" />
        </mxCell>
        <mxCell id="GOCW8Aj6e0anN713tclq-129" value="" style="rounded=0;whiteSpace=wrap;html=1;" parent="1" vertex="1">
          <mxGeometry x="171" y="7" width="120" height="200" as="geometry" />
        </mxCell>
        <mxCell id="GOCW8Aj6e0anN713tclq-130" value="" style="rounded=0;whiteSpace=wrap;html=1;" parent="1" vertex="1">
          <mxGeometry x="330" y="7" width="120" height="200" as="geometry" />
        </mxCell>
        <mxCell id="GOCW8Aj6e0anN713tclq-131" value="" style="whiteSpace=wrap;html=1;aspect=fixed;fillColor=#FFF2CC;" parent="1" vertex="1">
          <mxGeometry x="108" y="70" width="80" height="80" as="geometry" />
        </mxCell>
        <mxCell id="GOCW8Aj6e0anN713tclq-132" value="" style="whiteSpace=wrap;html=1;aspect=fixed;fillColor=#FFF2CC;" parent="1" vertex="1">
          <mxGeometry x="270" y="70" width="80" height="80" as="geometry" />
        </mxCell>
        <mxCell id="GOCW8Aj6e0anN713tclq-133" value="" style="whiteSpace=wrap;html=1;aspect=fixed;fillColor=#FFF2CC;" parent="1" vertex="1">
          <mxGeometry x="430" y="70" width="80" height="80" as="geometry" />
        </mxCell>
        <mxCell id="GOCW8Aj6e0anN713tclq-134" value="" style="rounded=0;whiteSpace=wrap;html=1;fillColor=#FFF2CC;strokeColor=#FFF2CC;direction=south;" parent="1" vertex="1">
          <mxGeometry x="131" y="68" width="39" height="86" as="geometry" />
        </mxCell>
        <mxCell id="GOCW8Aj6e0anN713tclq-135" value="" style="rounded=0;whiteSpace=wrap;html=1;fillColor=#FFF2CC;strokeColor=#FFF2CC;direction=south;" parent="1" vertex="1">
          <mxGeometry x="292" y="69" width="37" height="86" as="geometry" />
        </mxCell>
        <mxCell id="GOCW8Aj6e0anN713tclq-136" value="" style="rounded=0;whiteSpace=wrap;html=1;fillColor=#FFF2CC;strokeColor=#FFF2CC;direction=south;" parent="1" vertex="1">
          <mxGeometry x="451" y="69" width="38" height="86" as="geometry" />
        </mxCell>
        <mxCell id="GOCW8Aj6e0anN713tclq-137" value="" style="rounded=0;whiteSpace=wrap;html=1;strokeColor=#FFFFFF;fillColor=#FFFFFF;" parent="1" vertex="1">
          <mxGeometry x="563" y="65" width="49" height="91" as="geometry" />
        </mxCell>
        <mxCell id="GOCW8Aj6e0anN713tclq-138" value="" style="rounded=0;whiteSpace=wrap;html=1;strokeColor=#FFFFFF;fillColor=#FFFFFF;" parent="1" vertex="1">
          <mxGeometry x="575" y="197" width="38" height="9" as="geometry" />
        </mxCell>
        <mxCell id="GOCW8Aj6e0anN713tclq-139" value="" style="rounded=0;whiteSpace=wrap;html=1;strokeColor=#FFFFFF;fillColor=#FFFFFF;" parent="1" vertex="1">
          <mxGeometry x="575" y="8" width="37" height="18" as="geometry" />
        </mxCell>
        <mxCell id="GOCW8Aj6e0anN713tclq-140" value="" style="rounded=0;whiteSpace=wrap;html=1;direction=west;fontColor=#ffffff;fillColor=none;" parent="1" vertex="1">
          <mxGeometry x="51" y="-42" width="40" height="60" as="geometry" />
        </mxCell>
        <mxCell id="GOCW8Aj6e0anN713tclq-141" value="" style="rounded=0;whiteSpace=wrap;html=1;direction=west;fontColor=#ffffff;fillColor=none;" parent="1" vertex="1">
          <mxGeometry x="371" y="-43" width="40" height="60" as="geometry" />
        </mxCell>
        <mxCell id="GOCW8Aj6e0anN713tclq-142" value="" style="rounded=0;whiteSpace=wrap;html=1;direction=west;fontColor=#ffffff;fillColor=none;" parent="1" vertex="1">
          <mxGeometry x="53" y="200" width="40" height="60" as="geometry" />
        </mxCell>
        <mxCell id="GOCW8Aj6e0anN713tclq-143" value="" style="rounded=0;whiteSpace=wrap;html=1;direction=west;fontColor=#ffffff;fillColor=none;" parent="1" vertex="1">
          <mxGeometry x="213" y="200" width="40" height="60" as="geometry" />
        </mxCell>
        <mxCell id="GOCW8Aj6e0anN713tclq-144" value="" style="rounded=0;whiteSpace=wrap;html=1;direction=west;fontColor=#ffffff;fillColor=none;" parent="1" vertex="1">
          <mxGeometry x="373" y="200" width="40" height="60" as="geometry" />
        </mxCell>
        <mxCell id="GOCW8Aj6e0anN713tclq-145" value="" style="rounded=0;whiteSpace=wrap;html=1;direction=west;fontColor=#ffffff;fillColor=none;" parent="1" vertex="1">
          <mxGeometry x="533" y="200" width="40" height="60" as="geometry" />
        </mxCell>
        <mxCell id="GOCW8Aj6e0anN713tclq-146" value="" style="ellipse;whiteSpace=wrap;html=1;aspect=fixed;fillColor=#CCCCCC;strokeColor=#CCCCCC;" parent="1" vertex="1">
          <mxGeometry x="112" y="73" width="73" height="73" as="geometry" />
        </mxCell>
        <mxCell id="GOCW8Aj6e0anN713tclq-147" value="" style="ellipse;whiteSpace=wrap;html=1;aspect=fixed;fillColor=#CCCCCC;strokeColor=#CCCCCC;" parent="1" vertex="1">
          <mxGeometry x="273.5" y="73.5" width="73" height="73" as="geometry" />
        </mxCell>
        <mxCell id="GOCW8Aj6e0anN713tclq-148" value="" style="ellipse;whiteSpace=wrap;html=1;aspect=fixed;fillColor=#CCCCCC;strokeColor=#CCCCCC;" parent="1" vertex="1">
          <mxGeometry x="433.5" y="73.5" width="73" height="73" as="geometry" />
        </mxCell>
        <mxCell id="GOCW8Aj6e0anN713tclq-149" value="" style="rounded=0;whiteSpace=wrap;html=1;direction=west;fontColor=#ffffff;fillColor=none;" parent="1" vertex="1">
          <mxGeometry x="210" y="-42" width="40" height="60" as="geometry" />
        </mxCell>
        <mxCell id="GOCW8Aj6e0anN713tclq-150" value="" style="rounded=0;whiteSpace=wrap;html=1;direction=west;fontColor=#ffffff;fillColor=none;" parent="1" vertex="1">
          <mxGeometry x="530" y="-42" width="40" height="60" as="geometry" />
        </mxCell>
        <mxCell id="GOCW8Aj6e0anN713tclq-151" value="" style="rounded=0;whiteSpace=wrap;html=1;direction=south;strokeColor=#FFFFFF;" parent="1" vertex="1">
          <mxGeometry x="594" y="17" width="16" height="180" as="geometry" />
        </mxCell>
        <mxCell id="GOCW8Aj6e0anN713tclq-152" value="" style="rounded=0;whiteSpace=wrap;html=1;direction=south;fontColor=#ffffff;fillColor=#003366;" parent="1" vertex="1">
          <mxGeometry x="91" y="157" width="519" height="40" as="geometry" />
        </mxCell>
        <mxCell id="GOCW8Aj6e0anN713tclq-153" value="" style="rounded=0;whiteSpace=wrap;html=1;direction=south;fontColor=#ffffff;fillColor=#003366;" parent="1" vertex="1">
          <mxGeometry x="90" y="25" width="520" height="40" as="geometry" />
        </mxCell>
        <mxCell id="GOCW8Aj6e0anN713tclq-154" value="" style="edgeStyle=segmentEdgeStyle;endArrow=classic;html=1;" parent="1" edge="1">
          <mxGeometry width="50" height="50" relative="1" as="geometry">
            <mxPoint x="-13" y="26" as="sourcePoint" />
            <mxPoint x="47" y="-14" as="targetPoint" />
            <Array as="points">
              <mxPoint x="-13" y="-14" />
            </Array>
          </mxGeometry>
        </mxCell>
        <mxCell id="GOCW8Aj6e0anN713tclq-155" value="" style="edgeStyle=segmentEdgeStyle;endArrow=classic;html=1;entryX=0.122;entryY=0.6;entryDx=0;entryDy=0;entryPerimeter=0;" parent="1" target="GOCW8Aj6e0anN713tclq-122" edge="1">
          <mxGeometry width="50" height="50" relative="1" as="geometry">
            <mxPoint x="-10" y="197" as="sourcePoint" />
            <mxPoint x="40" y="231.49" as="targetPoint" />
            <Array as="points">
              <mxPoint x="-10" y="231" />
            </Array>
          </mxGeometry>
        </mxCell>
        <mxCell id="GOCW8Aj6e0anN713tclq-156" value="" style="endArrow=classic;html=1;" parent="1" edge="1">
          <mxGeometry width="50" height="50" relative="1" as="geometry">
            <mxPoint x="273.5" y="-12.339999999999918" as="sourcePoint" />
            <mxPoint x="351.5" y="-12.339999999999918" as="targetPoint" />
          </mxGeometry>
        </mxCell>
        <mxCell id="GOCW8Aj6e0anN713tclq-157" value="" style="endArrow=classic;html=1;" parent="1" edge="1">
          <mxGeometry width="50" height="50" relative="1" as="geometry">
            <mxPoint x="112" y="-13.339999999999918" as="sourcePoint" />
            <mxPoint x="190.00000000000023" y="-13.339999999999918" as="targetPoint" />
          </mxGeometry>
        </mxCell>
        <mxCell id="GOCW8Aj6e0anN713tclq-158" value="" style="endArrow=classic;html=1;" parent="1" edge="1">
          <mxGeometry width="50" height="50" relative="1" as="geometry">
            <mxPoint x="433.5" y="-12.340000000000146" as="sourcePoint" />
            <mxPoint x="511.5" y="-12.340000000000146" as="targetPoint" />
          </mxGeometry>
        </mxCell>
        <mxCell id="GOCW8Aj6e0anN713tclq-159" value="" style="endArrow=classic;html=1;" parent="1" edge="1">
          <mxGeometry width="50" height="50" relative="1" as="geometry">
            <mxPoint x="112" y="229.66000000000008" as="sourcePoint" />
            <mxPoint x="190.00000000000023" y="229.66000000000008" as="targetPoint" />
          </mxGeometry>
        </mxCell>
        <mxCell id="GOCW8Aj6e0anN713tclq-160" value="" style="endArrow=classic;html=1;" parent="1" edge="1">
          <mxGeometry width="50" height="50" relative="1" as="geometry">
            <mxPoint x="273.5" y="229.66000000000008" as="sourcePoint" />
            <mxPoint x="351.5" y="229.66000000000008" as="targetPoint" />
          </mxGeometry>
        </mxCell>
        <mxCell id="GOCW8Aj6e0anN713tclq-161" value="" style="endArrow=classic;html=1;" parent="1" edge="1">
          <mxGeometry width="50" height="50" relative="1" as="geometry">
            <mxPoint x="433.5" y="229.66000000000008" as="sourcePoint" />
            <mxPoint x="511.5" y="229.66000000000008" as="targetPoint" />
          </mxGeometry>
        </mxCell>
        <mxCell id="GOCW8Aj6e0anN713tclq-162" value="" style="endArrow=classic;html=1;" parent="1" edge="1">
          <mxGeometry width="50" height="50" relative="1" as="geometry">
            <mxPoint x="-113" y="106.57999999999993" as="sourcePoint" />
            <mxPoint x="-35" y="106.57999999999993" as="targetPoint" />
          </mxGeometry>
        </mxCell>
        <mxCell id="GOCW8Aj6e0anN713tclq-163" value="" style="whiteSpace=wrap;html=1;aspect=fixed;fillColor=#008a00;strokeColor=#005700;fontColor=#ffffff;" parent="1" vertex="1">
          <mxGeometry x="111.5" y="73" width="73" height="73" as="geometry" />
        </mxCell>
        <mxCell id="GOCW8Aj6e0anN713tclq-164" value="" style="whiteSpace=wrap;html=1;aspect=fixed;strokeColor=#005700;fontColor=#ffffff;fillColor=#99FF99;" parent="1" vertex="1">
          <mxGeometry x="273.5" y="73" width="73" height="73" as="geometry" />
        </mxCell>
        <mxCell id="GOCW8Aj6e0anN713tclq-165" value="" style="whiteSpace=wrap;html=1;aspect=fixed;strokeColor=#005700;fontColor=#ffffff;fillColor=#004000;" parent="1" vertex="1">
          <mxGeometry x="433.5" y="73" width="73" height="73" as="geometry" />
        </mxCell>
        <mxCell id="GOCW8Aj6e0anN713tclq-166" value="" style="rounded=0;whiteSpace=wrap;html=1;fillColor=#FFF2CC;strokeColor=#FFF2CC;" parent="1" vertex="1">
          <mxGeometry x="1090" y="97" width="90" height="40" as="geometry" />
        </mxCell>
        <mxCell id="GOCW8Aj6e0anN713tclq-167" value="" style="rounded=0;whiteSpace=wrap;html=1;direction=south;strokeColor=#FFF2CC;fillColor=#FFF2CC;" parent="1" vertex="1">
          <mxGeometry x="1660" y="-23" width="40" height="280" as="geometry" />
        </mxCell>
        <mxCell id="GOCW8Aj6e0anN713tclq-168" value="" style="rounded=0;whiteSpace=wrap;html=1;fillColor=#fff2cc;direction=south;strokeColor=#FFF2CC;" parent="1" vertex="1">
          <mxGeometry x="1500" y="-23" width="40" height="280" as="geometry" />
        </mxCell>
        <mxCell id="GOCW8Aj6e0anN713tclq-169" value="" style="rounded=0;whiteSpace=wrap;html=1;fillColor=#fff2cc;direction=south;strokeColor=#FFF2CC;" parent="1" vertex="1">
          <mxGeometry x="1340" y="-23" width="40" height="280" as="geometry" />
        </mxCell>
        <mxCell id="GOCW8Aj6e0anN713tclq-170" value="" style="rounded=0;whiteSpace=wrap;html=1;fillColor=#fff2cc;strokeColor=#FFF2CC;" parent="1" vertex="1">
          <mxGeometry x="1180" y="217" width="640" height="40" as="geometry" />
        </mxCell>
        <mxCell id="GOCW8Aj6e0anN713tclq-171" value="" style="rounded=0;whiteSpace=wrap;html=1;fillColor=#FFF2CC;strokeColor=#FFF2CC;" parent="1" vertex="1">
          <mxGeometry x="1180" y="-23" width="640" height="40" as="geometry" />
        </mxCell>
        <mxCell id="GOCW8Aj6e0anN713tclq-172" value="" style="rounded=0;whiteSpace=wrap;html=1;fillColor=#fff2cc;direction=south;strokeColor=#FFF2CC;" parent="1" vertex="1">
          <mxGeometry x="1180" y="-23" width="40" height="280" as="geometry" />
        </mxCell>
        <mxCell id="GOCW8Aj6e0anN713tclq-173" value="" style="rounded=0;whiteSpace=wrap;html=1;" parent="1" vertex="1">
          <mxGeometry x="1700" y="17" width="120" height="200" as="geometry" />
        </mxCell>
        <mxCell id="GOCW8Aj6e0anN713tclq-174" value="" style="endArrow=none;html=1;rounded=0;exitX=1;exitY=0;exitDx=0;exitDy=0;" parent="1" source="GOCW8Aj6e0anN713tclq-171" edge="1">
          <mxGeometry width="50" height="50" relative="1" as="geometry">
            <mxPoint x="1760" y="-23" as="sourcePoint" />
            <mxPoint x="1090" y="96.99999999999977" as="targetPoint" />
            <Array as="points">
              <mxPoint x="1630" y="-23" />
              <mxPoint x="1560" y="-23" />
              <mxPoint x="1410" y="-23" />
              <mxPoint x="1320" y="-23" />
              <mxPoint x="1180" y="-23" />
              <mxPoint x="1180" y="97" />
            </Array>
          </mxGeometry>
        </mxCell>
        <mxCell id="GOCW8Aj6e0anN713tclq-175" value="" style="endArrow=none;html=1;rounded=0;exitX=1;exitY=1;exitDx=0;exitDy=0;" parent="1" source="GOCW8Aj6e0anN713tclq-170" edge="1">
          <mxGeometry width="50" height="50" relative="1" as="geometry">
            <mxPoint x="1760" y="257" as="sourcePoint" />
            <mxPoint x="1090" y="136.99999999999977" as="targetPoint" />
            <Array as="points">
              <mxPoint x="1450" y="257" />
              <mxPoint x="1290" y="257" />
              <mxPoint x="1230" y="257" />
              <mxPoint x="1180" y="257" />
              <mxPoint x="1180" y="147" />
              <mxPoint x="1180" y="137" />
              <mxPoint x="1160" y="137" />
            </Array>
          </mxGeometry>
        </mxCell>
        <mxCell id="GOCW8Aj6e0anN713tclq-176" value="" style="rounded=0;whiteSpace=wrap;html=1;" parent="1" vertex="1">
          <mxGeometry x="1220" y="17" width="120" height="200" as="geometry" />
        </mxCell>
        <mxCell id="GOCW8Aj6e0anN713tclq-177" value="" style="rounded=0;whiteSpace=wrap;html=1;" parent="1" vertex="1">
          <mxGeometry x="1381" y="17" width="120" height="200" as="geometry" />
        </mxCell>
        <mxCell id="GOCW8Aj6e0anN713tclq-178" value="" style="rounded=0;whiteSpace=wrap;html=1;" parent="1" vertex="1">
          <mxGeometry x="1540" y="17" width="120" height="200" as="geometry" />
        </mxCell>
        <mxCell id="GOCW8Aj6e0anN713tclq-179" value="" style="whiteSpace=wrap;html=1;aspect=fixed;fillColor=#FFF2CC;" parent="1" vertex="1">
          <mxGeometry x="1318" y="80" width="80" height="80" as="geometry" />
        </mxCell>
        <mxCell id="GOCW8Aj6e0anN713tclq-180" value="" style="whiteSpace=wrap;html=1;aspect=fixed;fillColor=#FFF2CC;" parent="1" vertex="1">
          <mxGeometry x="1480" y="80" width="80" height="80" as="geometry" />
        </mxCell>
        <mxCell id="GOCW8Aj6e0anN713tclq-181" value="" style="whiteSpace=wrap;html=1;aspect=fixed;fillColor=#FFF2CC;" parent="1" vertex="1">
          <mxGeometry x="1640" y="80" width="80" height="80" as="geometry" />
        </mxCell>
        <mxCell id="GOCW8Aj6e0anN713tclq-182" value="" style="rounded=0;whiteSpace=wrap;html=1;fillColor=#FFF2CC;strokeColor=#FFF2CC;direction=south;" parent="1" vertex="1">
          <mxGeometry x="1341" y="78" width="39" height="86" as="geometry" />
        </mxCell>
        <mxCell id="GOCW8Aj6e0anN713tclq-183" value="" style="rounded=0;whiteSpace=wrap;html=1;fillColor=#FFF2CC;strokeColor=#FFF2CC;direction=south;" parent="1" vertex="1">
          <mxGeometry x="1502" y="79" width="37" height="86" as="geometry" />
        </mxCell>
        <mxCell id="GOCW8Aj6e0anN713tclq-184" value="" style="rounded=0;whiteSpace=wrap;html=1;fillColor=#FFF2CC;strokeColor=#FFF2CC;direction=south;" parent="1" vertex="1">
          <mxGeometry x="1661" y="79" width="38" height="86" as="geometry" />
        </mxCell>
        <mxCell id="GOCW8Aj6e0anN713tclq-185" value="" style="rounded=0;whiteSpace=wrap;html=1;strokeColor=#FFFFFF;fillColor=#FFFFFF;" parent="1" vertex="1">
          <mxGeometry x="1773" y="75" width="49" height="91" as="geometry" />
        </mxCell>
        <mxCell id="GOCW8Aj6e0anN713tclq-186" value="" style="rounded=0;whiteSpace=wrap;html=1;strokeColor=#FFFFFF;fillColor=#FFFFFF;" parent="1" vertex="1">
          <mxGeometry x="1785" y="207" width="38" height="9" as="geometry" />
        </mxCell>
        <mxCell id="GOCW8Aj6e0anN713tclq-187" value="" style="rounded=0;whiteSpace=wrap;html=1;strokeColor=#FFFFFF;fillColor=#FFFFFF;" parent="1" vertex="1">
          <mxGeometry x="1785" y="18" width="37" height="18" as="geometry" />
        </mxCell>
        <mxCell id="GOCW8Aj6e0anN713tclq-188" value="" style="rounded=0;whiteSpace=wrap;html=1;direction=west;fontColor=#ffffff;fillColor=#003366;" parent="1" vertex="1">
          <mxGeometry x="1261" y="-32" width="40" height="60" as="geometry" />
        </mxCell>
        <mxCell id="GOCW8Aj6e0anN713tclq-189" value="" style="rounded=0;whiteSpace=wrap;html=1;direction=west;fontColor=#ffffff;fillColor=#003366;" parent="1" vertex="1">
          <mxGeometry x="1581" y="-33" width="40" height="60" as="geometry" />
        </mxCell>
        <mxCell id="GOCW8Aj6e0anN713tclq-190" value="" style="rounded=0;whiteSpace=wrap;html=1;direction=west;fontColor=#ffffff;fillColor=#003366;" parent="1" vertex="1">
          <mxGeometry x="1263" y="210" width="40" height="60" as="geometry" />
        </mxCell>
        <mxCell id="GOCW8Aj6e0anN713tclq-191" value="" style="rounded=0;whiteSpace=wrap;html=1;direction=west;fontColor=#ffffff;fillColor=#003366;" parent="1" vertex="1">
          <mxGeometry x="1423" y="210" width="40" height="60" as="geometry" />
        </mxCell>
        <mxCell id="GOCW8Aj6e0anN713tclq-192" value="" style="rounded=0;whiteSpace=wrap;html=1;direction=west;fontColor=#ffffff;fillColor=#003366;" parent="1" vertex="1">
          <mxGeometry x="1583" y="210" width="40" height="60" as="geometry" />
        </mxCell>
        <mxCell id="GOCW8Aj6e0anN713tclq-193" value="" style="rounded=0;whiteSpace=wrap;html=1;direction=west;fontColor=#ffffff;fillColor=#003366;" parent="1" vertex="1">
          <mxGeometry x="1743" y="210" width="40" height="60" as="geometry" />
        </mxCell>
        <mxCell id="GOCW8Aj6e0anN713tclq-194" value="" style="ellipse;whiteSpace=wrap;html=1;aspect=fixed;fillColor=#CCCCCC;strokeColor=#CCCCCC;" parent="1" vertex="1">
          <mxGeometry x="1322" y="83" width="73" height="73" as="geometry" />
        </mxCell>
        <mxCell id="GOCW8Aj6e0anN713tclq-195" value="" style="ellipse;whiteSpace=wrap;html=1;aspect=fixed;fillColor=#CCCCCC;strokeColor=#CCCCCC;" parent="1" vertex="1">
          <mxGeometry x="1483.5" y="83.5" width="73" height="73" as="geometry" />
        </mxCell>
        <mxCell id="GOCW8Aj6e0anN713tclq-196" value="" style="ellipse;whiteSpace=wrap;html=1;aspect=fixed;fillColor=#CCCCCC;strokeColor=#CCCCCC;" parent="1" vertex="1">
          <mxGeometry x="1643.5" y="83.5" width="73" height="73" as="geometry" />
        </mxCell>
        <mxCell id="GOCW8Aj6e0anN713tclq-197" value="" style="rounded=0;whiteSpace=wrap;html=1;direction=west;fontColor=#ffffff;fillColor=#003366;" parent="1" vertex="1">
          <mxGeometry x="1420" y="-32" width="40" height="60" as="geometry" />
        </mxCell>
        <mxCell id="GOCW8Aj6e0anN713tclq-198" value="" style="rounded=0;whiteSpace=wrap;html=1;direction=west;fontColor=#ffffff;fillColor=#003366;" parent="1" vertex="1">
          <mxGeometry x="1740" y="-32" width="40" height="60" as="geometry" />
        </mxCell>
        <mxCell id="GOCW8Aj6e0anN713tclq-199" value="" style="whiteSpace=wrap;html=1;aspect=fixed;fillColor=#008a00;strokeColor=#005700;fontColor=#ffffff;" parent="1" vertex="1">
          <mxGeometry x="1321.5" y="83" width="73" height="73" as="geometry" />
        </mxCell>
        <mxCell id="GOCW8Aj6e0anN713tclq-202" value="" style="rounded=0;whiteSpace=wrap;html=1;direction=south;strokeColor=#FFFFFF;" parent="1" vertex="1">
          <mxGeometry x="1804" y="27" width="16" height="180" as="geometry" />
        </mxCell>
        <mxCell id="GOCW8Aj6e0anN713tclq-203" value="" style="rounded=0;whiteSpace=wrap;html=1;direction=south;fontColor=#ffffff;fillColor=none;" parent="1" vertex="1">
          <mxGeometry x="1301" y="167" width="519" height="40" as="geometry" />
        </mxCell>
        <mxCell id="GOCW8Aj6e0anN713tclq-204" value="" style="rounded=0;whiteSpace=wrap;html=1;direction=south;fontColor=#ffffff;fillColor=none;" parent="1" vertex="1">
          <mxGeometry x="1300" y="35" width="520" height="40" as="geometry" />
        </mxCell>
        <mxCell id="GOCW8Aj6e0anN713tclq-212" value="" style="endArrow=classic;html=1;strokeWidth=6;" parent="1" edge="1">
          <mxGeometry width="50" height="50" relative="1" as="geometry">
            <mxPoint x="-1001" y="-240" as="sourcePoint" />
            <mxPoint x="-1001" y="-60" as="targetPoint" />
          </mxGeometry>
        </mxCell>
        <mxCell id="GOCW8Aj6e0anN713tclq-213" value="" style="endArrow=classic;html=1;strokeWidth=6;" parent="1" edge="1">
          <mxGeometry width="50" height="50" relative="1" as="geometry">
            <mxPoint x="-1001" y="280" as="sourcePoint" />
            <mxPoint x="-1001" y="460" as="targetPoint" />
          </mxGeometry>
        </mxCell>
        <mxCell id="GOCW8Aj6e0anN713tclq-214" value="" style="endArrow=classic;html=1;rounded=0;strokeWidth=6;" parent="1" edge="1">
          <mxGeometry width="50" height="50" relative="1" as="geometry">
            <mxPoint x="-560" y="689" as="sourcePoint" />
            <mxPoint x="-220" y="109" as="targetPoint" />
            <Array as="points">
              <mxPoint x="-500" y="689" />
              <mxPoint x="-390" y="689" />
              <mxPoint x="-390" y="469" />
              <mxPoint x="-390" y="109" />
            </Array>
          </mxGeometry>
        </mxCell>
        <mxCell id="GOCW8Aj6e0anN713tclq-215" value="" style="endArrow=classic;html=1;strokeWidth=6;" parent="1" edge="1">
          <mxGeometry width="50" height="50" relative="1" as="geometry">
            <mxPoint x="690" y="106.78999999999996" as="sourcePoint" />
            <mxPoint x="1010" y="106.78999999999996" as="targetPoint" />
          </mxGeometry>
        </mxCell>
        <mxCell id="GOCW8Aj6e0anN713tclq-217" value="" style="endArrow=classic;html=1;rounded=0;strokeWidth=6;" parent="1" edge="1">
          <mxGeometry width="50" height="50" relative="1" as="geometry">
            <mxPoint x="1539" y="290" as="sourcePoint" />
            <mxPoint x="232" y="290" as="targetPoint" />
            <Array as="points">
              <mxPoint x="1539" y="689" />
              <mxPoint x="872" y="689" />
              <mxPoint x="232" y="689" />
            </Array>
          </mxGeometry>
        </mxCell>
        <mxCell id="GOCW8Aj6e0anN713tclq-218" value="" style="whiteSpace=wrap;html=1;aspect=fixed;strokeColor=#005700;fontColor=#ffffff;fillColor=#99FF99;" parent="1" vertex="1">
          <mxGeometry x="1483.5" y="84.5" width="73" height="73" as="geometry" />
        </mxCell>
        <mxCell id="GOCW8Aj6e0anN713tclq-219" value="" style="whiteSpace=wrap;html=1;aspect=fixed;strokeColor=#005700;fontColor=#ffffff;fillColor=#004000;" parent="1" vertex="1">
          <mxGeometry x="1643.5" y="84.5" width="73" height="73" as="geometry" />
        </mxCell>
        <mxCell id="GOCW8Aj6e0anN713tclq-227" value="" style="rounded=0;whiteSpace=wrap;html=1;" parent="1" vertex="1">
          <mxGeometry x="-806" y="-1130" width="120" height="200" as="geometry" />
        </mxCell>
        <mxCell id="GOCW8Aj6e0anN713tclq-228" value="" style="endArrow=none;html=1;rounded=0;exitX=1;exitY=0;exitDx=0;exitDy=0;" parent="1" edge="1">
          <mxGeometry width="50" height="50" relative="1" as="geometry">
            <mxPoint x="-686" y="-1170" as="sourcePoint" />
            <mxPoint x="-1416" y="-1050" as="targetPoint" />
            <Array as="points">
              <mxPoint x="-876" y="-1170" />
              <mxPoint x="-946" y="-1170" />
              <mxPoint x="-1096" y="-1170" />
              <mxPoint x="-1186" y="-1170" />
              <mxPoint x="-1326" y="-1170" />
              <mxPoint x="-1326" y="-1050" />
            </Array>
          </mxGeometry>
        </mxCell>
        <mxCell id="GOCW8Aj6e0anN713tclq-229" value="" style="endArrow=none;html=1;rounded=0;exitX=1;exitY=1;exitDx=0;exitDy=0;" parent="1" edge="1">
          <mxGeometry width="50" height="50" relative="1" as="geometry">
            <mxPoint x="-686.0000000000002" y="-890" as="sourcePoint" />
            <mxPoint x="-1416" y="-1010" as="targetPoint" />
            <Array as="points">
              <mxPoint x="-1056" y="-890" />
              <mxPoint x="-1216" y="-890" />
              <mxPoint x="-1276" y="-890" />
              <mxPoint x="-1326" y="-890" />
              <mxPoint x="-1326" y="-1000" />
              <mxPoint x="-1326" y="-1010" />
              <mxPoint x="-1346" y="-1010" />
            </Array>
          </mxGeometry>
        </mxCell>
        <mxCell id="GOCW8Aj6e0anN713tclq-230" value="" style="rounded=0;whiteSpace=wrap;html=1;" parent="1" vertex="1">
          <mxGeometry x="-1286" y="-1130" width="120" height="200" as="geometry" />
        </mxCell>
        <mxCell id="GOCW8Aj6e0anN713tclq-231" value="" style="rounded=0;whiteSpace=wrap;html=1;" parent="1" vertex="1">
          <mxGeometry x="-1125" y="-1130" width="120" height="200" as="geometry" />
        </mxCell>
        <mxCell id="GOCW8Aj6e0anN713tclq-232" value="" style="rounded=0;whiteSpace=wrap;html=1;" parent="1" vertex="1">
          <mxGeometry x="-966" y="-1130" width="120" height="200" as="geometry" />
        </mxCell>
        <mxCell id="GOCW8Aj6e0anN713tclq-233" value="" style="whiteSpace=wrap;html=1;aspect=fixed;fillColor=#FFFFFF;" parent="1" vertex="1">
          <mxGeometry x="-1188" y="-1067" width="80" height="80" as="geometry" />
        </mxCell>
        <mxCell id="GOCW8Aj6e0anN713tclq-234" value="" style="whiteSpace=wrap;html=1;aspect=fixed;fillColor=#FFFFFF;" parent="1" vertex="1">
          <mxGeometry x="-1026" y="-1067" width="80" height="80" as="geometry" />
        </mxCell>
        <mxCell id="GOCW8Aj6e0anN713tclq-235" value="" style="whiteSpace=wrap;html=1;aspect=fixed;fillColor=#FFFFFF;" parent="1" vertex="1">
          <mxGeometry x="-866" y="-1067" width="80" height="80" as="geometry" />
        </mxCell>
        <mxCell id="GOCW8Aj6e0anN713tclq-239" value="" style="rounded=0;whiteSpace=wrap;html=1;strokeColor=#FFFFFF;fillColor=#FFFFFF;" parent="1" vertex="1">
          <mxGeometry x="-733" y="-1072" width="49" height="91" as="geometry" />
        </mxCell>
        <mxCell id="GOCW8Aj6e0anN713tclq-240" value="" style="rounded=0;whiteSpace=wrap;html=1;strokeColor=#FFFFFF;fillColor=#FFFFFF;" parent="1" vertex="1">
          <mxGeometry x="-721" y="-940" width="38" height="9" as="geometry" />
        </mxCell>
        <mxCell id="GOCW8Aj6e0anN713tclq-241" value="" style="rounded=0;whiteSpace=wrap;html=1;strokeColor=#FFFFFF;fillColor=#FFFFFF;" parent="1" vertex="1">
          <mxGeometry x="-721" y="-1129" width="37" height="18" as="geometry" />
        </mxCell>
        <mxCell id="GOCW8Aj6e0anN713tclq-242" value="" style="rounded=0;whiteSpace=wrap;html=1;direction=west;fontColor=#ffffff;fillColor=none;" parent="1" vertex="1">
          <mxGeometry x="-1245" y="-1179" width="40" height="60" as="geometry" />
        </mxCell>
        <mxCell id="GOCW8Aj6e0anN713tclq-243" value="" style="rounded=0;whiteSpace=wrap;html=1;direction=west;fontColor=#ffffff;fillColor=none;" parent="1" vertex="1">
          <mxGeometry x="-925" y="-1180" width="40" height="60" as="geometry" />
        </mxCell>
        <mxCell id="GOCW8Aj6e0anN713tclq-244" value="" style="ellipse;whiteSpace=wrap;html=1;aspect=fixed;fillColor=#CCCCCC;strokeColor=#CCCCCC;" parent="1" vertex="1">
          <mxGeometry x="-1184" y="-1064" width="73" height="73" as="geometry" />
        </mxCell>
        <mxCell id="GOCW8Aj6e0anN713tclq-245" value="" style="ellipse;whiteSpace=wrap;html=1;aspect=fixed;fillColor=#CCCCCC;strokeColor=#CCCCCC;" parent="1" vertex="1">
          <mxGeometry x="-1022.5" y="-1063.5" width="73" height="73" as="geometry" />
        </mxCell>
        <mxCell id="GOCW8Aj6e0anN713tclq-246" value="" style="ellipse;whiteSpace=wrap;html=1;aspect=fixed;fillColor=#CCCCCC;strokeColor=#CCCCCC;" parent="1" vertex="1">
          <mxGeometry x="-862.5" y="-1063.5" width="73" height="73" as="geometry" />
        </mxCell>
        <mxCell id="GOCW8Aj6e0anN713tclq-247" value="" style="rounded=0;whiteSpace=wrap;html=1;direction=west;fontColor=#ffffff;fillColor=none;" parent="1" vertex="1">
          <mxGeometry x="-1086" y="-1179" width="40" height="60" as="geometry" />
        </mxCell>
        <mxCell id="GOCW8Aj6e0anN713tclq-248" value="" style="rounded=0;whiteSpace=wrap;html=1;direction=west;fontColor=#ffffff;fillColor=none;" parent="1" vertex="1">
          <mxGeometry x="-766" y="-1179" width="40" height="60" as="geometry" />
        </mxCell>
        <mxCell id="GOCW8Aj6e0anN713tclq-249" value="" style="rounded=0;whiteSpace=wrap;html=1;direction=south;strokeColor=#FFFFFF;" parent="1" vertex="1">
          <mxGeometry x="-702" y="-1120" width="16" height="180" as="geometry" />
        </mxCell>
        <mxCell id="GOCW8Aj6e0anN713tclq-250" value="" style="rounded=0;whiteSpace=wrap;html=1;direction=south;fontColor=#ffffff;fillColor=none;" parent="1" vertex="1">
          <mxGeometry x="-1205.5" y="-980" width="519" height="40" as="geometry" />
        </mxCell>
        <mxCell id="GOCW8Aj6e0anN713tclq-251" value="" style="rounded=0;whiteSpace=wrap;html=1;direction=south;fontColor=#ffffff;fillColor=none;" parent="1" vertex="1">
          <mxGeometry x="-1206" y="-1112" width="520" height="40" as="geometry" />
        </mxCell>
        <mxCell id="GOCW8Aj6e0anN713tclq-261" value="" style="rounded=0;whiteSpace=wrap;html=1;fillColor=#FFFFFF;strokeColor=#FFFFFF;" parent="1" vertex="1">
          <mxGeometry x="-1165" y="-988" width="39" height="4" as="geometry" />
        </mxCell>
        <mxCell id="GOCW8Aj6e0anN713tclq-262" value="" style="rounded=0;whiteSpace=wrap;html=1;fillColor=#FFFFFF;strokeColor=#FFFFFF;" parent="1" vertex="1">
          <mxGeometry x="-1004" y="-1071" width="37" height="4" as="geometry" />
        </mxCell>
        <mxCell id="GOCW8Aj6e0anN713tclq-263" value="" style="rounded=0;whiteSpace=wrap;html=1;fillColor=#FFFFFF;strokeColor=#FFFFFF;" parent="1" vertex="1">
          <mxGeometry x="-845" y="-1071" width="38" height="4" as="geometry" />
        </mxCell>
        <mxCell id="GOCW8Aj6e0anN713tclq-264" value="" style="rounded=0;whiteSpace=wrap;html=1;fillColor=#FFFFFF;strokeColor=#FFFFFF;" parent="1" vertex="1">
          <mxGeometry x="-1165" y="-1071" width="39" height="4" as="geometry" />
        </mxCell>
        <mxCell id="GOCW8Aj6e0anN713tclq-265" value="" style="rounded=0;whiteSpace=wrap;html=1;fillColor=#FFFFFF;strokeColor=#FFFFFF;" parent="1" vertex="1">
          <mxGeometry x="-1004" y="-988" width="37" height="4" as="geometry" />
        </mxCell>
        <mxCell id="GOCW8Aj6e0anN713tclq-266" value="" style="rounded=0;whiteSpace=wrap;html=1;fillColor=#FFFFFF;strokeColor=#FFFFFF;" parent="1" vertex="1">
          <mxGeometry x="-845" y="-988" width="38" height="4" as="geometry" />
        </mxCell>
        <mxCell id="GOCW8Aj6e0anN713tclq-270" value="" style="rounded=0;whiteSpace=wrap;html=1;" parent="1" vertex="1">
          <mxGeometry x="-807" y="-580" width="120" height="200" as="geometry" />
        </mxCell>
        <mxCell id="GOCW8Aj6e0anN713tclq-271" value="" style="endArrow=none;html=1;rounded=0;exitX=1;exitY=0;exitDx=0;exitDy=0;" parent="1" edge="1">
          <mxGeometry width="50" height="50" relative="1" as="geometry">
            <mxPoint x="-687" y="-620" as="sourcePoint" />
            <mxPoint x="-1416.9999999999995" y="-500" as="targetPoint" />
            <Array as="points">
              <mxPoint x="-877" y="-620" />
              <mxPoint x="-947" y="-620" />
              <mxPoint x="-1097" y="-620" />
              <mxPoint x="-1187" y="-620" />
              <mxPoint x="-1327" y="-620" />
              <mxPoint x="-1327" y="-500" />
            </Array>
          </mxGeometry>
        </mxCell>
        <mxCell id="GOCW8Aj6e0anN713tclq-272" value="" style="endArrow=none;html=1;rounded=0;exitX=1;exitY=1;exitDx=0;exitDy=0;" parent="1" edge="1">
          <mxGeometry width="50" height="50" relative="1" as="geometry">
            <mxPoint x="-687" y="-340.00000000000045" as="sourcePoint" />
            <mxPoint x="-1416.9999999999995" y="-460" as="targetPoint" />
            <Array as="points">
              <mxPoint x="-1057" y="-340" />
              <mxPoint x="-1217" y="-340" />
              <mxPoint x="-1277" y="-340" />
              <mxPoint x="-1327" y="-340" />
              <mxPoint x="-1327" y="-450" />
              <mxPoint x="-1327" y="-460" />
              <mxPoint x="-1347" y="-460" />
            </Array>
          </mxGeometry>
        </mxCell>
        <mxCell id="GOCW8Aj6e0anN713tclq-273" value="" style="rounded=0;whiteSpace=wrap;html=1;" parent="1" vertex="1">
          <mxGeometry x="-1287" y="-580" width="120" height="200" as="geometry" />
        </mxCell>
        <mxCell id="GOCW8Aj6e0anN713tclq-274" value="" style="rounded=0;whiteSpace=wrap;html=1;" parent="1" vertex="1">
          <mxGeometry x="-1126" y="-580" width="120" height="200" as="geometry" />
        </mxCell>
        <mxCell id="GOCW8Aj6e0anN713tclq-275" value="" style="rounded=0;whiteSpace=wrap;html=1;" parent="1" vertex="1">
          <mxGeometry x="-967" y="-580" width="120" height="200" as="geometry" />
        </mxCell>
        <mxCell id="GOCW8Aj6e0anN713tclq-276" value="" style="whiteSpace=wrap;html=1;aspect=fixed;fillColor=#FFFFFF;" parent="1" vertex="1">
          <mxGeometry x="-1189" y="-517" width="80" height="80" as="geometry" />
        </mxCell>
        <mxCell id="GOCW8Aj6e0anN713tclq-277" value="" style="whiteSpace=wrap;html=1;aspect=fixed;fillColor=#FFFFFF;" parent="1" vertex="1">
          <mxGeometry x="-1027" y="-517" width="80" height="80" as="geometry" />
        </mxCell>
        <mxCell id="GOCW8Aj6e0anN713tclq-278" value="" style="whiteSpace=wrap;html=1;aspect=fixed;fillColor=#FFFFFF;" parent="1" vertex="1">
          <mxGeometry x="-867" y="-517" width="80" height="80" as="geometry" />
        </mxCell>
        <mxCell id="GOCW8Aj6e0anN713tclq-279" value="" style="rounded=0;whiteSpace=wrap;html=1;strokeColor=#FFFFFF;fillColor=#FFFFFF;" parent="1" vertex="1">
          <mxGeometry x="-734" y="-522" width="49" height="91" as="geometry" />
        </mxCell>
        <mxCell id="GOCW8Aj6e0anN713tclq-280" value="" style="rounded=0;whiteSpace=wrap;html=1;strokeColor=#FFFFFF;fillColor=#FFFFFF;" parent="1" vertex="1">
          <mxGeometry x="-722" y="-390" width="38" height="9" as="geometry" />
        </mxCell>
        <mxCell id="GOCW8Aj6e0anN713tclq-281" value="" style="rounded=0;whiteSpace=wrap;html=1;strokeColor=#FFFFFF;fillColor=#FFFFFF;" parent="1" vertex="1">
          <mxGeometry x="-722" y="-579" width="37" height="18" as="geometry" />
        </mxCell>
        <mxCell id="GOCW8Aj6e0anN713tclq-282" value="" style="rounded=0;whiteSpace=wrap;html=1;direction=west;fontColor=#ffffff;fillColor=#003366;" parent="1" vertex="1">
          <mxGeometry x="-1246" y="-629" width="40" height="60" as="geometry" />
        </mxCell>
        <mxCell id="GOCW8Aj6e0anN713tclq-283" value="" style="rounded=0;whiteSpace=wrap;html=1;direction=west;fontColor=#ffffff;fillColor=#003366;" parent="1" vertex="1">
          <mxGeometry x="-926" y="-630" width="40" height="60" as="geometry" />
        </mxCell>
        <mxCell id="GOCW8Aj6e0anN713tclq-284" value="" style="ellipse;whiteSpace=wrap;html=1;aspect=fixed;fillColor=#CCCCCC;strokeColor=#CCCCCC;" parent="1" vertex="1">
          <mxGeometry x="-1185" y="-514" width="73" height="73" as="geometry" />
        </mxCell>
        <mxCell id="GOCW8Aj6e0anN713tclq-285" value="" style="ellipse;whiteSpace=wrap;html=1;aspect=fixed;fillColor=#CCCCCC;strokeColor=#CCCCCC;" parent="1" vertex="1">
          <mxGeometry x="-1023.5" y="-513.5" width="73" height="73" as="geometry" />
        </mxCell>
        <mxCell id="GOCW8Aj6e0anN713tclq-286" value="" style="ellipse;whiteSpace=wrap;html=1;aspect=fixed;fillColor=#CCCCCC;strokeColor=#CCCCCC;" parent="1" vertex="1">
          <mxGeometry x="-863.5" y="-513.5" width="73" height="73" as="geometry" />
        </mxCell>
        <mxCell id="GOCW8Aj6e0anN713tclq-287" value="" style="rounded=0;whiteSpace=wrap;html=1;direction=west;fontColor=#ffffff;fillColor=#003366;" parent="1" vertex="1">
          <mxGeometry x="-1087" y="-629" width="40" height="60" as="geometry" />
        </mxCell>
        <mxCell id="GOCW8Aj6e0anN713tclq-288" value="" style="rounded=0;whiteSpace=wrap;html=1;direction=west;fontColor=#ffffff;fillColor=#003366;" parent="1" vertex="1">
          <mxGeometry x="-767" y="-629" width="40" height="60" as="geometry" />
        </mxCell>
        <mxCell id="GOCW8Aj6e0anN713tclq-289" value="" style="rounded=0;whiteSpace=wrap;html=1;direction=south;strokeColor=#FFFFFF;" parent="1" vertex="1">
          <mxGeometry x="-703" y="-570" width="16" height="180" as="geometry" />
        </mxCell>
        <mxCell id="GOCW8Aj6e0anN713tclq-290" value="" style="rounded=0;whiteSpace=wrap;html=1;direction=south;fontColor=#ffffff;fillColor=#003366;" parent="1" vertex="1">
          <mxGeometry x="-1206.5" y="-430" width="519" height="40" as="geometry" />
        </mxCell>
        <mxCell id="GOCW8Aj6e0anN713tclq-291" value="" style="rounded=0;whiteSpace=wrap;html=1;direction=south;fontColor=#ffffff;fillColor=#003366;" parent="1" vertex="1">
          <mxGeometry x="-1207" y="-562" width="520" height="40" as="geometry" />
        </mxCell>
        <mxCell id="GOCW8Aj6e0anN713tclq-301" value="" style="rounded=0;whiteSpace=wrap;html=1;fillColor=#FFFFFF;strokeColor=#FFFFFF;" parent="1" vertex="1">
          <mxGeometry x="-1166" y="-438" width="39" height="4" as="geometry" />
        </mxCell>
        <mxCell id="GOCW8Aj6e0anN713tclq-302" value="" style="rounded=0;whiteSpace=wrap;html=1;fillColor=#FFFFFF;strokeColor=#FFFFFF;" parent="1" vertex="1">
          <mxGeometry x="-1005" y="-521" width="37" height="4" as="geometry" />
        </mxCell>
        <mxCell id="GOCW8Aj6e0anN713tclq-303" value="" style="rounded=0;whiteSpace=wrap;html=1;fillColor=#FFFFFF;strokeColor=#FFFFFF;" parent="1" vertex="1">
          <mxGeometry x="-846" y="-521" width="38" height="4" as="geometry" />
        </mxCell>
        <mxCell id="GOCW8Aj6e0anN713tclq-304" value="" style="rounded=0;whiteSpace=wrap;html=1;fillColor=#FFFFFF;strokeColor=#FFFFFF;" parent="1" vertex="1">
          <mxGeometry x="-1166" y="-521" width="39" height="4" as="geometry" />
        </mxCell>
        <mxCell id="GOCW8Aj6e0anN713tclq-305" value="" style="rounded=0;whiteSpace=wrap;html=1;fillColor=#FFFFFF;strokeColor=#FFFFFF;" parent="1" vertex="1">
          <mxGeometry x="-1005" y="-438" width="37" height="4" as="geometry" />
        </mxCell>
        <mxCell id="GOCW8Aj6e0anN713tclq-306" value="" style="rounded=0;whiteSpace=wrap;html=1;fillColor=#FFFFFF;strokeColor=#FFFFFF;" parent="1" vertex="1">
          <mxGeometry x="-846" y="-438" width="38" height="4" as="geometry" />
        </mxCell>
        <mxCell id="GOCW8Aj6e0anN713tclq-311" value="" style="rounded=0;whiteSpace=wrap;html=1;direction=west;fontColor=#ffffff;fillColor=none;" parent="1" vertex="1">
          <mxGeometry x="-1245" y="-935" width="40" height="60" as="geometry" />
        </mxCell>
        <mxCell id="GOCW8Aj6e0anN713tclq-312" value="" style="rounded=0;whiteSpace=wrap;html=1;direction=west;fontColor=#ffffff;fillColor=none;" parent="1" vertex="1">
          <mxGeometry x="-1085" y="-935" width="40" height="60" as="geometry" />
        </mxCell>
        <mxCell id="GOCW8Aj6e0anN713tclq-313" value="" style="rounded=0;whiteSpace=wrap;html=1;direction=west;fontColor=#ffffff;fillColor=none;" parent="1" vertex="1">
          <mxGeometry x="-925" y="-935" width="40" height="60" as="geometry" />
        </mxCell>
        <mxCell id="GOCW8Aj6e0anN713tclq-314" value="" style="rounded=0;whiteSpace=wrap;html=1;direction=west;fontColor=#ffffff;fillColor=none;" parent="1" vertex="1">
          <mxGeometry x="-765" y="-935" width="40" height="60" as="geometry" />
        </mxCell>
        <mxCell id="GOCW8Aj6e0anN713tclq-320" value="" style="rounded=0;whiteSpace=wrap;html=1;direction=west;fontColor=#ffffff;fillColor=#003366;" parent="1" vertex="1">
          <mxGeometry x="-1246" y="-385" width="40" height="60" as="geometry" />
        </mxCell>
        <mxCell id="GOCW8Aj6e0anN713tclq-321" value="" style="rounded=0;whiteSpace=wrap;html=1;direction=west;fontColor=#ffffff;fillColor=#003366;" parent="1" vertex="1">
          <mxGeometry x="-1086" y="-385" width="40" height="60" as="geometry" />
        </mxCell>
        <mxCell id="GOCW8Aj6e0anN713tclq-322" value="" style="rounded=0;whiteSpace=wrap;html=1;direction=west;fontColor=#ffffff;fillColor=#003366;" parent="1" vertex="1">
          <mxGeometry x="-926" y="-385" width="40" height="60" as="geometry" />
        </mxCell>
        <mxCell id="GOCW8Aj6e0anN713tclq-323" value="" style="rounded=0;whiteSpace=wrap;html=1;direction=west;fontColor=#ffffff;fillColor=#003366;" parent="1" vertex="1">
          <mxGeometry x="-766" y="-385" width="40" height="60" as="geometry" />
        </mxCell>
        <mxCell id="GOCW8Aj6e0anN713tclq-324" value="" style="endArrow=classic;html=1;strokeWidth=6;" parent="1" edge="1">
          <mxGeometry width="50" height="50" relative="1" as="geometry">
            <mxPoint x="-1000" y="-850" as="sourcePoint" />
            <mxPoint x="-1000" y="-670" as="targetPoint" />
          </mxGeometry>
        </mxCell>
        <mxCell id="GOCW8Aj6e0anN713tclq-325" value="&lt;font style=&quot;font-size: 35px&quot;&gt;&lt;b&gt;&lt;font style=&quot;font-size: 35px&quot; face=&quot;Georgia&quot;&gt;Storage (Earth &amp;amp; In-Orbit)&lt;/font&gt;&lt;/b&gt;&lt;/font&gt;" style="text;html=1;align=center;verticalAlign=middle;resizable=0;points=[];autosize=1;" parent="1" vertex="1">
          <mxGeometry x="-1840" y="-1160" width="490" height="30" as="geometry" />
        </mxCell>
        <mxCell id="GOCW8Aj6e0anN713tclq-326" value="&lt;font style=&quot;font-size: 35px&quot;&gt;&lt;b&gt;&lt;font style=&quot;font-size: 35px&quot; face=&quot;Georgia&quot;&gt;Control layer priming&lt;/font&gt;&lt;/b&gt;&lt;/font&gt;" style="text;html=1;align=center;verticalAlign=middle;resizable=0;points=[];autosize=1;" parent="1" vertex="1">
          <mxGeometry x="-1770" y="-615" width="410" height="30" as="geometry" />
        </mxCell>
        <mxCell id="GOCW8Aj6e0anN713tclq-327" value="&lt;font style=&quot;font-size: 35px&quot;&gt;&lt;b&gt;&lt;font style=&quot;font-size: 35px&quot; face=&quot;Georgia&quot;&gt;Flow layer priming&lt;/font&gt;&lt;/b&gt;&lt;/font&gt;" style="text;html=1;align=center;verticalAlign=middle;resizable=0;points=[];autosize=1;" parent="1" vertex="1">
          <mxGeometry x="-1725" y="-23" width="360" height="30" as="geometry" />
        </mxCell>
        <mxCell id="GOCW8Aj6e0anN713tclq-328" value="&lt;font style=&quot;font-size: 35px&quot;&gt;&lt;b&gt;&lt;font style=&quot;font-size: 35px&quot; face=&quot;Georgia&quot;&gt;Recovery/Germination&lt;/font&gt;&lt;/b&gt;&lt;/font&gt;" style="text;html=1;align=center;verticalAlign=middle;resizable=0;points=[];autosize=1;" parent="1" vertex="1">
          <mxGeometry x="-1795" y="530" width="430" height="30" as="geometry" />
        </mxCell>
        <mxCell id="GOCW8Aj6e0anN713tclq-329" value="&lt;font style=&quot;font-size: 35px&quot;&gt;&lt;b&gt;&lt;font style=&quot;font-size: 35px&quot; face=&quot;Georgia&quot;&gt;Flow medium&lt;br&gt;&lt;/font&gt;&lt;/b&gt;&lt;/font&gt;" style="text;html=1;align=center;verticalAlign=middle;resizable=0;points=[];autosize=1;" parent="1" vertex="1">
          <mxGeometry x="166" y="-125" width="260" height="30" as="geometry" />
        </mxCell>
        <mxCell id="GOCW8Aj6e0anN713tclq-330" value="&lt;font style=&quot;font-size: 35px&quot;&gt;&lt;b&gt;&lt;font style=&quot;font-size: 35px&quot; face=&quot;Georgia&quot;&gt;Perfusion/Incubation&lt;br&gt;&lt;/font&gt;&lt;/b&gt;&lt;/font&gt;" style="text;html=1;align=center;verticalAlign=middle;resizable=0;points=[];autosize=1;" parent="1" vertex="1">
          <mxGeometry x="1315" y="-125" width="410" height="30" as="geometry" />
        </mxCell>
        <mxCell id="GOCW8Aj6e0anN713tclq-331" value="&lt;font style=&quot;font-size: 35px&quot;&gt;&lt;b&gt;&lt;font style=&quot;font-size: 35px&quot; face=&quot;Georgia&quot;&gt;Experiment&lt;br&gt;Step-wise culture&lt;br&gt;&lt;/font&gt;&lt;/b&gt;&lt;/font&gt;" style="text;html=1;align=center;verticalAlign=middle;resizable=0;points=[];autosize=1;" parent="1" vertex="1">
          <mxGeometry x="740" y="-481" width="330" height="50" as="geometry" />
        </mxCell>
        <mxCell id="GOCW8Aj6e0anN713tclq-334" value="" style="endArrow=classic;html=1;strokeWidth=6;" parent="1" edge="1">
          <mxGeometry width="50" height="50" relative="1" as="geometry">
            <mxPoint x="1950" y="120.32999999999996" as="sourcePoint" />
            <mxPoint x="2270" y="120.32999999999996" as="targetPoint" />
          </mxGeometry>
        </mxCell>
        <mxCell id="GOCW8Aj6e0anN713tclq-335" value="" style="rounded=0;whiteSpace=wrap;html=1;fillColor=#FFF2CC;strokeColor=#FFF2CC;" parent="1" vertex="1">
          <mxGeometry x="2350" y="97" width="90" height="40" as="geometry" />
        </mxCell>
        <mxCell id="GOCW8Aj6e0anN713tclq-336" value="" style="rounded=0;whiteSpace=wrap;html=1;direction=south;strokeColor=#FFF2CC;fillColor=#FFF2CC;" parent="1" vertex="1">
          <mxGeometry x="2920" y="-23" width="40" height="280" as="geometry" />
        </mxCell>
        <mxCell id="GOCW8Aj6e0anN713tclq-337" value="" style="rounded=0;whiteSpace=wrap;html=1;fillColor=#fff2cc;direction=south;strokeColor=#FFF2CC;" parent="1" vertex="1">
          <mxGeometry x="2760" y="-23" width="40" height="280" as="geometry" />
        </mxCell>
        <mxCell id="GOCW8Aj6e0anN713tclq-338" value="" style="rounded=0;whiteSpace=wrap;html=1;fillColor=#fff2cc;direction=south;strokeColor=#FFF2CC;" parent="1" vertex="1">
          <mxGeometry x="2600" y="-23" width="40" height="280" as="geometry" />
        </mxCell>
        <mxCell id="GOCW8Aj6e0anN713tclq-339" value="" style="rounded=0;whiteSpace=wrap;html=1;fillColor=#fff2cc;strokeColor=#FFF2CC;" parent="1" vertex="1">
          <mxGeometry x="2440" y="217" width="640" height="40" as="geometry" />
        </mxCell>
        <mxCell id="GOCW8Aj6e0anN713tclq-340" value="" style="rounded=0;whiteSpace=wrap;html=1;fillColor=#FFF2CC;strokeColor=#FFF2CC;" parent="1" vertex="1">
          <mxGeometry x="2440" y="-23" width="640" height="40" as="geometry" />
        </mxCell>
        <mxCell id="GOCW8Aj6e0anN713tclq-341" value="" style="rounded=0;whiteSpace=wrap;html=1;fillColor=#fff2cc;direction=south;strokeColor=#FFF2CC;" parent="1" vertex="1">
          <mxGeometry x="2440" y="-23" width="40" height="280" as="geometry" />
        </mxCell>
        <mxCell id="GOCW8Aj6e0anN713tclq-342" value="" style="rounded=0;whiteSpace=wrap;html=1;" parent="1" vertex="1">
          <mxGeometry x="2960" y="17" width="120" height="200" as="geometry" />
        </mxCell>
        <mxCell id="GOCW8Aj6e0anN713tclq-343" value="" style="endArrow=none;html=1;rounded=0;exitX=1;exitY=0;exitDx=0;exitDy=0;" parent="1" source="GOCW8Aj6e0anN713tclq-340" edge="1">
          <mxGeometry width="50" height="50" relative="1" as="geometry">
            <mxPoint x="3020" y="-23" as="sourcePoint" />
            <mxPoint x="2350" y="97" as="targetPoint" />
            <Array as="points">
              <mxPoint x="2890" y="-23" />
              <mxPoint x="2820" y="-23" />
              <mxPoint x="2670" y="-23" />
              <mxPoint x="2580" y="-23" />
              <mxPoint x="2440" y="-23" />
              <mxPoint x="2440" y="97" />
            </Array>
          </mxGeometry>
        </mxCell>
        <mxCell id="GOCW8Aj6e0anN713tclq-344" value="" style="endArrow=none;html=1;rounded=0;exitX=1;exitY=1;exitDx=0;exitDy=0;" parent="1" source="GOCW8Aj6e0anN713tclq-339" edge="1">
          <mxGeometry width="50" height="50" relative="1" as="geometry">
            <mxPoint x="3020" y="257" as="sourcePoint" />
            <mxPoint x="2350" y="137" as="targetPoint" />
            <Array as="points">
              <mxPoint x="2710" y="257" />
              <mxPoint x="2550" y="257" />
              <mxPoint x="2490" y="257" />
              <mxPoint x="2440" y="257" />
              <mxPoint x="2440" y="147" />
              <mxPoint x="2440" y="137" />
              <mxPoint x="2420" y="137" />
            </Array>
          </mxGeometry>
        </mxCell>
        <mxCell id="GOCW8Aj6e0anN713tclq-345" value="" style="rounded=0;whiteSpace=wrap;html=1;" parent="1" vertex="1">
          <mxGeometry x="2480" y="17" width="120" height="200" as="geometry" />
        </mxCell>
        <mxCell id="GOCW8Aj6e0anN713tclq-346" value="" style="rounded=0;whiteSpace=wrap;html=1;" parent="1" vertex="1">
          <mxGeometry x="2641" y="17" width="120" height="200" as="geometry" />
        </mxCell>
        <mxCell id="GOCW8Aj6e0anN713tclq-347" value="" style="rounded=0;whiteSpace=wrap;html=1;" parent="1" vertex="1">
          <mxGeometry x="2800" y="17" width="120" height="200" as="geometry" />
        </mxCell>
        <mxCell id="GOCW8Aj6e0anN713tclq-348" value="" style="whiteSpace=wrap;html=1;aspect=fixed;fillColor=#FFF2CC;" parent="1" vertex="1">
          <mxGeometry x="2578" y="80" width="80" height="80" as="geometry" />
        </mxCell>
        <mxCell id="GOCW8Aj6e0anN713tclq-349" value="" style="whiteSpace=wrap;html=1;aspect=fixed;fillColor=#FFF2CC;" parent="1" vertex="1">
          <mxGeometry x="2740" y="80" width="80" height="80" as="geometry" />
        </mxCell>
        <mxCell id="GOCW8Aj6e0anN713tclq-350" value="" style="whiteSpace=wrap;html=1;aspect=fixed;fillColor=#FFF2CC;" parent="1" vertex="1">
          <mxGeometry x="2900" y="80" width="80" height="80" as="geometry" />
        </mxCell>
        <mxCell id="GOCW8Aj6e0anN713tclq-351" value="" style="rounded=0;whiteSpace=wrap;html=1;fillColor=#FFF2CC;strokeColor=#FFF2CC;direction=south;" parent="1" vertex="1">
          <mxGeometry x="2601" y="78" width="39" height="86" as="geometry" />
        </mxCell>
        <mxCell id="GOCW8Aj6e0anN713tclq-352" value="" style="rounded=0;whiteSpace=wrap;html=1;fillColor=#FFF2CC;strokeColor=#FFF2CC;direction=south;" parent="1" vertex="1">
          <mxGeometry x="2762" y="79" width="37" height="86" as="geometry" />
        </mxCell>
        <mxCell id="GOCW8Aj6e0anN713tclq-353" value="" style="rounded=0;whiteSpace=wrap;html=1;fillColor=#FFF2CC;strokeColor=#FFF2CC;direction=south;" parent="1" vertex="1">
          <mxGeometry x="2921" y="79" width="38" height="86" as="geometry" />
        </mxCell>
        <mxCell id="GOCW8Aj6e0anN713tclq-354" value="" style="rounded=0;whiteSpace=wrap;html=1;strokeColor=#FFFFFF;fillColor=#FFFFFF;" parent="1" vertex="1">
          <mxGeometry x="3033" y="75" width="49" height="91" as="geometry" />
        </mxCell>
        <mxCell id="GOCW8Aj6e0anN713tclq-355" value="" style="rounded=0;whiteSpace=wrap;html=1;strokeColor=#FFFFFF;fillColor=#FFFFFF;" parent="1" vertex="1">
          <mxGeometry x="3045" y="207" width="38" height="9" as="geometry" />
        </mxCell>
        <mxCell id="GOCW8Aj6e0anN713tclq-356" value="" style="rounded=0;whiteSpace=wrap;html=1;strokeColor=#FFFFFF;fillColor=#FFFFFF;" parent="1" vertex="1">
          <mxGeometry x="3045" y="18" width="37" height="18" as="geometry" />
        </mxCell>
        <mxCell id="GOCW8Aj6e0anN713tclq-357" value="" style="rounded=0;whiteSpace=wrap;html=1;direction=west;fontColor=#ffffff;fillColor=#003366;" parent="1" vertex="1">
          <mxGeometry x="2521" y="-32" width="40" height="60" as="geometry" />
        </mxCell>
        <mxCell id="GOCW8Aj6e0anN713tclq-358" value="" style="rounded=0;whiteSpace=wrap;html=1;direction=west;fontColor=#ffffff;fillColor=#003366;" parent="1" vertex="1">
          <mxGeometry x="2841" y="-33" width="40" height="60" as="geometry" />
        </mxCell>
        <mxCell id="GOCW8Aj6e0anN713tclq-359" value="" style="rounded=0;whiteSpace=wrap;html=1;direction=west;fontColor=#ffffff;fillColor=#003366;" parent="1" vertex="1">
          <mxGeometry x="2523" y="210" width="40" height="60" as="geometry" />
        </mxCell>
        <mxCell id="GOCW8Aj6e0anN713tclq-360" value="" style="rounded=0;whiteSpace=wrap;html=1;direction=west;fontColor=#ffffff;fillColor=#003366;" parent="1" vertex="1">
          <mxGeometry x="2683" y="210" width="40" height="60" as="geometry" />
        </mxCell>
        <mxCell id="GOCW8Aj6e0anN713tclq-361" value="" style="rounded=0;whiteSpace=wrap;html=1;direction=west;fontColor=#ffffff;fillColor=#003366;" parent="1" vertex="1">
          <mxGeometry x="2843" y="210" width="40" height="60" as="geometry" />
        </mxCell>
        <mxCell id="GOCW8Aj6e0anN713tclq-362" value="" style="rounded=0;whiteSpace=wrap;html=1;direction=west;fontColor=#ffffff;fillColor=#003366;" parent="1" vertex="1">
          <mxGeometry x="3003" y="210" width="40" height="60" as="geometry" />
        </mxCell>
        <mxCell id="GOCW8Aj6e0anN713tclq-363" value="" style="ellipse;whiteSpace=wrap;html=1;aspect=fixed;fillColor=#CCCCCC;strokeColor=#CCCCCC;" parent="1" vertex="1">
          <mxGeometry x="2582" y="83" width="73" height="73" as="geometry" />
        </mxCell>
        <mxCell id="GOCW8Aj6e0anN713tclq-364" value="" style="ellipse;whiteSpace=wrap;html=1;aspect=fixed;fillColor=#CCCCCC;strokeColor=#CCCCCC;" parent="1" vertex="1">
          <mxGeometry x="2743.5" y="83.5" width="73" height="73" as="geometry" />
        </mxCell>
        <mxCell id="GOCW8Aj6e0anN713tclq-365" value="" style="ellipse;whiteSpace=wrap;html=1;aspect=fixed;fillColor=#CCCCCC;strokeColor=#CCCCCC;" parent="1" vertex="1">
          <mxGeometry x="2903.5" y="83.5" width="73" height="73" as="geometry" />
        </mxCell>
        <mxCell id="GOCW8Aj6e0anN713tclq-366" value="" style="rounded=0;whiteSpace=wrap;html=1;direction=west;fontColor=#ffffff;fillColor=#003366;" parent="1" vertex="1">
          <mxGeometry x="2680" y="-32" width="40" height="60" as="geometry" />
        </mxCell>
        <mxCell id="GOCW8Aj6e0anN713tclq-367" value="" style="rounded=0;whiteSpace=wrap;html=1;direction=west;fontColor=#ffffff;fillColor=#003366;" parent="1" vertex="1">
          <mxGeometry x="3000" y="-32" width="40" height="60" as="geometry" />
        </mxCell>
        <mxCell id="GOCW8Aj6e0anN713tclq-368" value="" style="whiteSpace=wrap;html=1;aspect=fixed;fillColor=#008a00;strokeColor=#005700;fontColor=#ffffff;" parent="1" vertex="1">
          <mxGeometry x="2581.5" y="83" width="73" height="73" as="geometry" />
        </mxCell>
        <mxCell id="GOCW8Aj6e0anN713tclq-369" value="" style="rounded=0;whiteSpace=wrap;html=1;direction=south;strokeColor=#FFFFFF;" parent="1" vertex="1">
          <mxGeometry x="3064" y="27" width="16" height="180" as="geometry" />
        </mxCell>
        <mxCell id="GOCW8Aj6e0anN713tclq-370" value="" style="rounded=0;whiteSpace=wrap;html=1;direction=south;fontColor=#ffffff;fillColor=#003366;" parent="1" vertex="1">
          <mxGeometry x="2561" y="167" width="519" height="40" as="geometry" />
        </mxCell>
        <mxCell id="GOCW8Aj6e0anN713tclq-371" value="" style="rounded=0;whiteSpace=wrap;html=1;direction=south;fontColor=#ffffff;fillColor=#003366;" parent="1" vertex="1">
          <mxGeometry x="2560" y="35" width="520" height="40" as="geometry" />
        </mxCell>
        <mxCell id="GOCW8Aj6e0anN713tclq-372" value="" style="whiteSpace=wrap;html=1;aspect=fixed;strokeColor=#005700;fontColor=#ffffff;fillColor=#99FF99;" parent="1" vertex="1">
          <mxGeometry x="2743.5" y="84.5" width="73" height="73" as="geometry" />
        </mxCell>
        <mxCell id="GOCW8Aj6e0anN713tclq-373" value="" style="whiteSpace=wrap;html=1;aspect=fixed;strokeColor=#005700;fontColor=#ffffff;fillColor=#004000;" parent="1" vertex="1">
          <mxGeometry x="2903.5" y="84.5" width="73" height="73" as="geometry" />
        </mxCell>
        <mxCell id="GOCW8Aj6e0anN713tclq-374" value="&lt;font style=&quot;font-size: 35px&quot;&gt;&lt;b&gt;&lt;font style=&quot;font-size: 35px&quot; face=&quot;Georgia&quot;&gt;Termination&lt;br&gt;&lt;/font&gt;&lt;/b&gt;&lt;/font&gt;" style="text;html=1;align=center;verticalAlign=middle;resizable=0;points=[];autosize=1;" parent="1" vertex="1">
          <mxGeometry x="2660" y="-125" width="240" height="30" as="geometry" />
        </mxCell>
        <mxCell id="GOCW8Aj6e0anN713tclq-376" value="&lt;font style=&quot;font-size: 35px&quot;&gt;&lt;b&gt;&lt;font style=&quot;font-size: 35px&quot; face=&quot;Georgia&quot;&gt;Pre-experiment&lt;br&gt;&lt;/font&gt;&lt;/b&gt;&lt;/font&gt;" style="text;html=1;align=center;verticalAlign=middle;resizable=0;points=[];autosize=1;" parent="1" vertex="1">
          <mxGeometry x="-1405" y="-1340" width="300" height="30" as="geometry" />
        </mxCell>
        <mxCell id="GOCW8Aj6e0anN713tclq-378" value="&lt;font style=&quot;font-size: 35px&quot;&gt;&lt;b&gt;&lt;font style=&quot;font-size: 35px&quot; face=&quot;Georgia&quot;&gt;Post-experiment&lt;br&gt;&lt;/font&gt;&lt;/b&gt;&lt;/font&gt;" style="text;html=1;align=center;verticalAlign=middle;resizable=0;points=[];autosize=1;" parent="1" vertex="1">
          <mxGeometry x="2620.5" y="-461" width="320" height="30" as="geometry" />
        </mxCell>
        <mxCell id="GOCW8Aj6e0anN713tclq-380" value="&lt;font style=&quot;font-size: 35px&quot;&gt;&lt;b&gt;&lt;font style=&quot;font-size: 35px&quot; face=&quot;Georgia&quot;&gt;S2&lt;br&gt;&lt;/font&gt;&lt;/b&gt;&lt;/font&gt;" style="text;html=1;align=center;verticalAlign=middle;resizable=0;points=[];autosize=1;" parent="1" vertex="1">
          <mxGeometry x="-925" y="-180" width="60" height="30" as="geometry" />
        </mxCell>
        <mxCell id="GOCW8Aj6e0anN713tclq-381" value="&lt;font style=&quot;font-size: 35px&quot;&gt;&lt;b&gt;&lt;font style=&quot;font-size: 35px&quot; face=&quot;Georgia&quot;&gt;S3&lt;br&gt;&lt;/font&gt;&lt;/b&gt;&lt;/font&gt;" style="text;html=1;align=center;verticalAlign=middle;resizable=0;points=[];autosize=1;" parent="1" vertex="1">
          <mxGeometry x="-933" y="360" width="60" height="30" as="geometry" />
        </mxCell>
        <mxCell id="GOCW8Aj6e0anN713tclq-382" value="&lt;font style=&quot;font-size: 35px&quot;&gt;&lt;b&gt;&lt;font style=&quot;font-size: 35px&quot; face=&quot;Georgia&quot;&gt;S4&lt;br&gt;&lt;/font&gt;&lt;/b&gt;&lt;/font&gt;" style="text;html=1;align=center;verticalAlign=middle;resizable=0;points=[];autosize=1;" parent="1" vertex="1">
          <mxGeometry x="-370" y="360" width="60" height="30" as="geometry" />
        </mxCell>
        <mxCell id="GOCW8Aj6e0anN713tclq-383" value="&lt;font style=&quot;font-size: 35px&quot;&gt;&lt;b&gt;&lt;font style=&quot;font-size: 35px&quot; face=&quot;Georgia&quot;&gt;S5&lt;br&gt;&lt;/font&gt;&lt;/b&gt;&lt;/font&gt;" style="text;html=1;align=center;verticalAlign=middle;resizable=0;points=[];autosize=1;" parent="1" vertex="1">
          <mxGeometry x="810" y="38" width="60" height="30" as="geometry" />
        </mxCell>
        <mxCell id="GOCW8Aj6e0anN713tclq-384" value="&lt;font style=&quot;font-size: 35px&quot;&gt;&lt;b&gt;&lt;font style=&quot;font-size: 35px&quot; face=&quot;Georgia&quot;&gt;S6&lt;br&gt;&lt;/font&gt;&lt;/b&gt;&lt;/font&gt;" style="text;html=1;align=center;verticalAlign=middle;resizable=0;points=[];autosize=1;" parent="1" vertex="1">
          <mxGeometry x="2090" y="43" width="60" height="30" as="geometry" />
        </mxCell>
        <mxCell id="IkV3j1PJMlQjuB5Ld1Cv-1" value="&lt;font style=&quot;font-size: 35px&quot;&gt;&lt;b&gt;&lt;font style=&quot;font-size: 35px&quot; face=&quot;Georgia&quot;&gt;S1&lt;br&gt;&lt;/font&gt;&lt;/b&gt;&lt;/font&gt;" style="text;html=1;align=center;verticalAlign=middle;resizable=0;points=[];autosize=1;" vertex="1" parent="1">
          <mxGeometry x="-933" y="-780" width="60" height="30" as="geometry" />
        </mxCell>
      </root>
    </mxGraphModel>
  </diagram>
</mxfile>
